<?xml version="1.0" encoding="utf-8"?>
<!-- Generator: Adobe Illustrator 23.0.4, SVG Export Plug-In . SVG Version: 6.00 Build 0)  -->
<svg version="1.1" id="Layer_1" xmlns="http://www.w3.org/2000/svg" xmlns:xlink="http://www.w3.org/1999/xlink" x="0px" y="0px"
	 viewBox="0 0 405 53" style="enable-background:new 0 0 405 53;" xml:space="preserve">
<style type="text/css">
	.st0{fill:none;stroke:#231F20;stroke-width:0.5394;}
	.st1{fill:#BC262B;}
	.st2{fill:#FFFFFF;}
	.st3{fill:none;stroke:#231F20;stroke-width:0.4645;}
	.st4{fill:#231F20;}
	.st5{fill:none;stroke:#231F20;stroke-width:9.489562e-02;}
	.st6{fill:none;stroke:#231F20;stroke-width:9.671295e-02;}
</style>
<g>
	<g>
		<line class="st0" x1="225" y1="51.9" x2="225" y2="0.5"/>
		<path d="M126.5,8.7c-0.5-1-1.1-1.7-2.3-2V6.2c0.7,0,3.1,0.1,3.7,0.1c0.5,0,2.7-0.1,3.4-0.1v0.6c-0.7,0.1-1.4,0.5-1.4,1.2
			c0,0.5,0.3,1.1,0.9,2.4l5.3,12.1l5-12.1c0.4-1,0.7-1.7,0.7-2.3c0-0.6-0.6-1.1-1.4-1.2V6.2c0.7,0,2.3,0.1,2.8,0.1
			c0.5,0,2.4-0.1,3.1-0.1v0.6c-1.3,0.3-2,1-2.7,2.7l-7.4,17.4h-1.6L126.5,8.7L126.5,8.7z"/>
		<path d="M54.8,26.1c1-0.2,1.6-0.7,1.6-1.7v-16c0-1-0.6-1.5-1.6-1.8V6.1c0.5,0,2.7,0.1,3.2,0.1c0.6,0,2.9-0.1,3.4-0.1v0.6
			c-1,0.2-1.7,0.7-1.7,1.8v6.7h11.9V8.4c0-1.1-0.6-1.5-1.6-1.8V6.1c0.5,0,2.8,0.1,3.4,0.1c0.5,0,2.8-0.1,3.3-0.1v0.6
			c-1,0.2-1.7,0.7-1.7,1.8v16c0,1,0.7,1.5,1.7,1.7v0.5c-0.5,0-2.7,0-3.3,0c-0.6,0-2.9,0-3.4,0v-0.5c1-0.2,1.6-0.7,1.6-1.7v-7.5H59.7
			v7.5c0,1.1,0.7,1.5,1.7,1.7v0.5c-0.5,0-2.8,0-3.4,0c-0.5,0-2.7,0-3.2,0V26.1L54.8,26.1z M79.9,26.1c1.3-0.3,2-1.1,2.5-2.3L89,8
			c0.3-0.7,0.6-2,0.6-2h1.8c0,0,0.3,1.3,0.6,2l7,15.9c0.5,1.1,1,1.9,2.4,2.2l0,0.5c-0.8,0-3.1,0-3.6,0c-0.5,0-2.8,0-3.5,0l0-0.5
			c1-0.2,1.3-0.8,1.3-1.3c0-0.4-0.2-0.9-0.4-1.4l-1.5-3.4l-7.7,0l-1.3,3.4c-0.2,0.4-0.3,0.9-0.3,1.3c0,0.6,0.3,1,1.4,1.3l0,0.5
			c-0.7,0-2.5,0-2.9,0l-3,0L79.9,26.1L79.9,26.1z M93,18.4l-3.3-7.6l-3,7.6H93L93,18.4z M79.9,26.1c1.3-0.3,2-1.1,2.5-2.3L89,8
			c0.3-0.7,0.6-2,0.6-2h1.8c0,0,0.3,1.3,0.6,2l7,15.9c0.5,1.1,1,1.9,2.4,2.2l0,0.5c-0.8,0-3.1,0-3.6,0c-0.5,0-2.8,0-3.5,0l0-0.5
			c1-0.2,1.3-0.8,1.3-1.3c0-0.4-0.2-0.9-0.4-1.4l-1.5-3.4l-7.7,0l-1.3,3.4c-0.2,0.4-0.3,0.9-0.3,1.3c0,0.6,0.3,1,1.4,1.3l0,0.5
			c-0.7,0-2.5,0-2.9,0l-3,0L79.9,26.1L79.9,26.1z M93,18.4l-3.3-7.6l-3,7.6H93L93,18.4z M145.1,26.1c1.3-0.3,2-1.1,2.5-2.3L154.1,8
			c0.3-0.7,0.6-2,0.6-2h1.8c0,0,0.3,1.3,0.6,2l6.9,15.9c0.5,1.1,1,1.9,2.4,2.2l0,0.5c-0.8,0-3.1,0-3.6,0s-2.8,0-3.5,0l0-0.5
			c1-0.2,1.3-0.8,1.3-1.3c0-0.4-0.2-0.9-0.4-1.4l-1.5-3.4l-7.7,0l-1.3,3.4c-0.2,0.4-0.3,0.9-0.3,1.3c0,0.6,0.3,1,1.4,1.3l0,0.5
			c-0.7,0-2.4,0-2.8,0l-3,0L145.1,26.1L145.1,26.1z M158.2,18.4l-3.3-7.6l-3,7.6H158.2L158.2,18.4z M192.6,26.1
			c1.2-0.2,1.9-0.7,1.9-1.8V8.4c0-1.1-0.7-1.5-1.9-1.8V6.1c0.7,0,3,0.1,3.6,0.1c1,0,3.8-0.2,6-0.2c7.3,0,11.8,4.1,11.8,10.3
			c0,6-4.6,10.5-12.2,10.5c-2.2,0-4.8-0.2-5.8-0.2c-0.6,0-2.7,0.1-3.4,0.1V26.1L192.6,26.1z M197.8,25.1c0.7,0.1,2.1,0.2,3.2,0.2
			c6.1,0,9.3-3.7,9.3-8.9c0-5.3-3.4-9.1-9.1-9.1c-1.2,0-2.6,0.1-3.4,0.2V25.1L197.8,25.1z"/>
		<path d="M109.6,24.2c0,1.1,0.7,1.6,1.9,1.9v0.6c-0.7,0-2.9-0.1-3.6-0.1c-0.5,0-2.7,0.1-3.4,0.1v-0.6c1.1-0.2,1.8-0.8,1.8-1.9V8.5
			c0-1-0.5-1.6-1.8-1.8V6.1c0.7,0,2.9,0.1,3.5,0.1c1,0,3.9-0.2,5-0.2c4.9,0,7.7,2,7.7,5.5c0,2.7-2,4.6-5.2,5.4c0,0,0.7,0.4,1.4,1.3
			c0.9,1,3.3,4.5,4.2,5.6c1,1.2,2.2,2.5,3.5,2.6v0.4c-0.6,0.1-1.7,0.3-2.4,0.3c-1.7,0-3-0.6-4.3-2.2c-1.1-1.4-3.1-4.3-4.2-5.7
			c-0.7-0.9-1.6-1.6-3.2-1.9c-0.3-0.1-0.6-0.1-0.9-0.1V24.2L109.6,24.2z M109.6,15.9c0.7,0.1,1.6,0.1,2.6,0.1c3.9,0,5.1-2.2,5.1-4.2
			c0-2.8-1.8-4.5-5.2-4.5c-0.7,0-1.7,0.1-2.4,0.2V15.9L109.6,15.9z"/>
		<path d="M174.5,24.2c0,1.1,0.7,1.6,1.9,1.9v0.6c-0.7,0-2.9-0.1-3.6-0.1c-0.5,0-2.7,0.1-3.4,0.1v-0.6c1.1-0.2,1.8-0.8,1.8-1.9V8.5
			c0-1-0.5-1.6-1.8-1.8V6.1c0.7,0,2.9,0.1,3.5,0.1c1,0,3.9-0.2,5-0.2c4.9,0,7.7,2,7.7,5.5c0,2.7-2,4.6-5.2,5.4c0,0,0.7,0.4,1.4,1.3
			c0.9,1,3.3,4.5,4.2,5.6c1,1.2,2.2,2.5,3.5,2.6v0.4c-0.6,0.1-1.7,0.3-2.4,0.3c-1.7,0-3-0.6-4.3-2.2c-1.1-1.4-3.1-4.3-4.2-5.7
			c-0.7-0.9-1.6-1.6-3.2-1.9c-0.3-0.1-0.6-0.1-1-0.1V24.2L174.5,24.2z M174.5,15.9c0.7,0.1,1.6,0.1,2.6,0.1c3.8,0,5.1-2.2,5.1-4.2
			c0-2.8-1.9-4.5-5.2-4.5c-0.7,0-1.7,0.1-2.4,0.2V15.9L174.5,15.9z"/>
		<path class="st1" d="M54.8,46.8c0.3,0,1.1,0,1.3,0c0.3,0,1.2,0,1.4,0v-0.4c-0.7-0.1-0.9-0.5-0.9-0.8l0.6-6.4l3.7,7.6h0.7l3.2-7.4
			l0.5,6.2c0,0.3-0.2,0.7-0.7,0.8v0.4c0.3,0,1.3,0,1.5,0c0.3,0,1.3,0,1.6,0v-0.4C67.3,46.3,67,46,67,45.6l-0.6-7.9
			c0-0.5,0.2-0.9,0.6-1.1v-0.4c-0.4,0-0.8,0-1.1,0c-0.2,0-0.6,0-1,0l-3.4,8l-3.9-8c-0.4,0-0.7,0-1,0c-0.3,0-0.6,0-1.1,0v0.4
			c0.5,0.1,0.7,0.5,0.6,1l-0.7,7.9c0,0.3-0.4,0.7-0.9,0.8V46.8L54.8,46.8z M71.5,46.8c0.4,0,1.4,0,1.7,0h3.1c1.1,0,1.6,0,2.6,0.1
			l0.3-1.9l-0.4-0.1c-0.3,0.6-0.8,1-1.8,1H74v-4.2h2.5c0.4,0,0.7,0.2,0.9,0.6h0.4c0-0.3,0-0.9,0-1.1c0-0.2,0-0.7,0-1h-0.4
			c-0.2,0.4-0.5,0.6-0.9,0.6H74v-3.7h2.9c0.8,0,1.3,0.3,1.5,1h0.4l0-2.1h-0.4c-0.2,0.1-0.4,0.1-0.6,0.1h-6.4v0.4
			c0.6,0.1,0.8,0.5,0.8,0.8v8.1c0,0.3-0.2,0.8-0.8,0.9V46.8L71.5,46.8z M82.5,46.8c0.4,0,1.4,0,1.7,0c0.5,0,1.9,0.1,2.9,0.1
			c3.3,0,5.6-2.2,5.6-5.2c0-3.1-2.2-5.5-5.6-5.5c-1,0-2.5,0.1-2.9,0.1c-0.3,0-1.3,0-1.7,0v0.4c0.6,0.1,0.8,0.5,0.8,0.8v8.1
			c0,0.3-0.2,0.8-0.8,0.9V46.8L82.5,46.8z M85,37.1c0.4-0.1,1-0.1,1.5-0.1c2.5,0,4.2,2.2,4.2,4.7c0,2.6-1.8,4.4-4.3,4.4
			c-0.5,0-1.1,0-1.4-0.1V37.1L85,37.1z M96.1,46.8c0.3,0,1.5,0,1.8,0c0.2,0,1.4,0,1.7,0v-0.4c-0.6-0.2-0.9-0.4-0.9-0.8v-8.1
			c0-0.4,0.2-0.7,0.9-0.8v-0.4c-0.3,0-1.5,0-1.7,0c-0.3,0-1.5,0-1.8,0v0.4c0.6,0.1,0.9,0.4,0.9,0.8v8.1c0,0.4-0.2,0.7-0.9,0.8V46.8
			L96.1,46.8z M112.1,44.6c-0.6,1.2-1.9,1.5-3.3,1.5c-2.5,0-3.8-2.5-3.8-4.6c0-2.5,1.4-4.6,3.8-4.6c1.3,0,2.5,0.4,3.1,1.5h0.4
			l-0.1-1.9c-0.2,0-0.4,0-0.9-0.1c-0.9-0.2-1.7-0.4-2.6-0.4c-3.5,0-5.7,2.4-5.7,5.5c0,3,2,5.5,5.7,5.5c1,0,1.8-0.2,2.7-0.4
			c0.4-0.1,0.8-0.1,0.9-0.1l0.1-1.9H112.1L112.1,44.6z M114.7,46.8c0.4,0,1.2,0,1.5,0c0.2,0,1,0,1.3,0v-0.4
			c-0.5-0.2-0.6-0.4-0.6-0.6c0-0.1,0.1-0.4,0.2-0.6l0.6-1.4h3.9l0.6,1.4c0.1,0.1,0.2,0.5,0.2,0.6c0,0.2,0,0.4-0.5,0.6v0.4
			c0.4,0,1.4,0,1.7,0c0.2,0,1.2,0,1.6,0v-0.4c-0.7-0.2-0.9-0.5-1.1-1.1l-3.1-7.9c-0.1-0.3-0.4-1.3-0.4-1.3h-1.1c0,0-0.2,0.9-0.4,1.3
			l-3.3,7.9c-0.2,0.6-0.4,0.9-1.1,1.1V46.8L114.7,46.8z M118,42.9l1.6-3.9l1.5,3.9H118L118,42.9z M128,46.8c0.4,0,1.4,0,1.7,0h3.1
			c1.1,0,1.6,0,2.6,0.1l0.3-2.2l-0.4-0.1c-0.4,0.9-0.9,1.3-1.8,1.3h-2.9v-8.4c0-0.4,0.2-0.7,0.9-0.8v-0.4c-0.3,0-1.5,0-1.7,0
			c-0.3,0-1.5,0-1.7,0v0.4c0.6,0.1,0.9,0.4,0.9,0.8v8.1c0,0.3-0.2,0.8-0.8,0.9V46.8L128,46.8z M143.2,46.5c1.1,0.3,2,0.5,3,0.5
			c2.2,0,3.7-1.2,3.7-3.2c0-1.1-0.5-1.8-1.2-2.2c-1-0.6-2.2-1-3.2-1.5c-0.6-0.3-0.9-0.8-0.9-1.6c0-0.9,0.8-1.6,2.1-1.6
			c1.1,0,2.1,0.5,2.5,1.5h0.4l-0.1-2.1c-1,0-1.9-0.2-2.7-0.2c-2.1,0-3.9,0.9-3.9,3c0,1.4,0.8,2.2,1.7,2.6c1,0.5,2.2,0.9,3.1,1.5
			c0.4,0.3,0.6,0.8,0.6,1.3c0,1.2-0.9,1.6-2.1,1.6c-0.6,0-1.3-0.1-1.8-0.4c-0.3-0.2-0.7-0.7-0.8-1.2h-0.4L143.2,46.5L143.2,46.5z
			 M162.2,44.6c-0.6,1.2-1.9,1.5-3.3,1.5c-2.5,0-3.8-2.5-3.8-4.6c0-2.5,1.4-4.6,3.8-4.6c1.3,0,2.5,0.4,3.1,1.5h0.4l-0.1-1.9
			c-0.2,0-0.4,0-0.9-0.1c-0.9-0.2-1.7-0.4-2.6-0.4c-3.5,0-5.7,2.4-5.7,5.5c0,3,2,5.5,5.7,5.5c1,0,1.8-0.2,2.7-0.4
			c0.4-0.1,0.8-0.1,0.9-0.1l0.1-1.9H162.2L162.2,44.6z M165.6,46.8c0.3,0,1.3,0,1.5,0c0.3,0,1.3,0,1.6,0v-0.4
			c-0.5-0.1-0.7-0.5-0.7-0.8v-3.9h5.7v3.9c0,0.3-0.2,0.7-0.7,0.8v0.4c0.3,0,1.3,0,1.6,0c0.2,0,1.3,0,1.5,0v-0.4
			c-0.5-0.1-0.7-0.5-0.7-0.8v-8.1c0-0.3,0.3-0.7,0.7-0.8v-0.4c-0.3,0-1.3,0-1.5,0c-0.3,0-1.3,0-1.6,0v0.4c0.5,0.1,0.7,0.5,0.7,0.8
			v3.3H168v-3.3c0-0.3,0.3-0.7,0.7-0.8v-0.4c-0.3,0-1.3,0-1.6,0c-0.2,0-1.3,0-1.5,0v0.4c0.5,0.1,0.7,0.5,0.7,0.8v8.1
			c0,0.3-0.3,0.7-0.7,0.8V46.8L165.6,46.8z M184.7,47c3.3,0,5.4-2.5,5.4-5.4c0-2.9-2.1-5.5-5.4-5.5c-3.3,0-5.4,2.6-5.4,5.5
			C179.3,44.5,181.4,47,184.7,47L184.7,47z M184.7,46.1c-2.4,0-3.5-2.2-3.5-4.5c0-2.4,1-4.6,3.5-4.6c2.4,0,3.5,2.2,3.5,4.6
			C188.2,44,187.1,46.1,184.7,46.1L184.7,46.1z M198.1,47c3.3,0,5.4-2.5,5.4-5.4c0-2.9-2.1-5.5-5.4-5.5c-3.3,0-5.4,2.6-5.4,5.5
			C192.7,44.5,194.8,47,198.1,47L198.1,47z M198.1,46.1c-2.4,0-3.5-2.2-3.5-4.5c0-2.4,1-4.6,3.5-4.6c2.4,0,3.5,2.2,3.5,4.6
			C201.6,44,200.5,46.1,198.1,46.1L198.1,46.1z M206.4,46.8c0.4,0,1.4,0,1.7,0h3.1c1.1,0,1.6,0,2.6,0.1l0.3-2.2l-0.4-0.1
			c-0.4,0.9-0.9,1.3-1.8,1.3h-2.9v-8.4c0-0.4,0.2-0.7,0.9-0.8v-0.4c-0.3,0-1.5,0-1.7,0c-0.3,0-1.5,0-1.7,0v0.4
			c0.6,0.1,0.9,0.4,0.9,0.8v8.1c0,0.3-0.2,0.8-0.8,0.9V46.8L206.4,46.8z"/>
		<path class="st1" d="M22.6-0.2l-22.1,0l0,17.7c0,21.7,21.7,35.5,22,35.6l0.1,0c0.1,0,0.2-0.1,0.2-0.1c3.7-2.4,22.1-15.5,22.1-35.5
			l0-17.8C44.7-0.2,22.6-0.2,22.6-0.2L22.6-0.2z M44.6,15.5H0.9v-2.6h43.8V15.5L44.6,15.5z"/>
		<path class="st2" d="M9.9,17.5c0,0-0.1,0.3-0.1,0.3c0,0.2-0.1,0.3-0.3,0.3L8.9,18c-0.3-0.1-0.5-0.1-0.7-0.1
			C8.1,18,8,18.1,7.9,18.2c0,0,0.1,0,0.1,0c0.2,0.1,0.5,0.2,0.5,0.5c0,0.3,0.2,0.5,0.3,0.7l0.1,0.2C9,19.7,9,19.8,9,19.8
			c0,0,0,0.1-0.1,0.2l-0.3,0.3c0,0-0.2,0.2-0.2,0.2c0,0-0.1,0.3-0.2,0.5c0.1,0.1,0.1,0.2,0.2,0.2c0.3-0.1,0.5,0,0.7,0l0.4,0
			c0,0,0.1,0,0.1,0l0.2,0c0.2,0,0.4-0.1,0.6,0.1c0,0,0.2,0.4,0.2,0.4c0,0.1,0.1,0.2,0.1,0.4c0,0.2,0,0.3-0.1,0.4l0,0.2
			c0,0,0,0.1-0.1,0.2c-0.4,0.6-0.9,1-1.5,1.3c0,0,0,0,0,0c0,0,0,0,0,0.1c0,0,0,0,0,0c0.1,0.1,0.3,0,0.5,0l0.2,0
			c0.3,0,0.5-0.1,0.8-0.2l0.8-0.2c0.1,0,0.3,0,0.3,0.2c0.2,0.3,0.3,0.6,0.5,0.6c0,0,0,0,0.2-0.1c0.2-0.1,0.4-0.4,0.9-0.2
			c0,0,0.1,0,0.1,0c0.3,0.2,0.4,0.5,0.4,0.8c0.1,0.2,0.1,0.3,0.2,0.4c0,0,0.1,0.1,0.1,0.2c0,0,0,0.1,0,0.1c0,0.3-0.3,0.4-0.4,0.5
			l-0.1,0c0,0-0.1,0-0.1,0l-0.7,0.1c-0.2,0-0.4,0.1-0.6,0.1c0,0,0,0.1,0.1,0.1c0.3,0.2,0.7,0.2,1.2,0.3l0.2,0c0,0,0.5,0,0.5,0l0.9,0
			c0.1,0,0.2,0.1,0.2,0.2c0.1,0.1,0,0.2,0,0.3L15.2,28c0,0-0.1,0.1-0.1,0.1l-1.4,1c-0.1,0-0.8,0.3-0.8,0.3l-1.1,0.4c0,0-0.1,0-0.1,0
			c-0.6,0.2-1.1-0.2-1.4-0.5c-0.3-0.2-0.5-0.4-0.7-0.4C9.3,29,9.2,29,9,29.2c-0.1,0.1-0.1,0.2-0.1,0.3c0,0,0,0.1,0,0.1
			c0,0,0.1,0,0.1,0c0.1,0,0.4,0.2,0.4,0.5c0,0.5-0.2,0.9-0.4,1.3c-0.2,0.3-0.3,0.6-0.4,1c0,0,0,0,0,0.1c0,0.1,0,0.1,0.1,0.2
			c0,0,0,0,0,0c0,0,0.1,0,0.1,0c0,0,0.1-0.1,0.1-0.1C9,32.3,9.1,32.1,9.5,32c0,0,0.1,0,0.1,0c0.6,0.1,0.9,0,1.1-0.2
			c0-0.1,0.1-0.1,0.2-0.1c0.2,0,0.4,0,0.5,0.1c0.1,0.1,0.2,0.3,0.2,0.5c0,0,0,0.1,0,0.2c0.3-0.1,0.6-0.4,0.9-0.9l0.1-0.2
			c0-0.1,0.1-0.1,0.2-0.1l0.2-0.1c0.3-0.1,0.6-0.2,1,0c0.1,0,0.1,0.1,0.1,0.2c0,0.1,0,0.2,0,0.2c0,0.3-0.1,0.6-0.2,0.8
			c0,0-0.1,0.1-0.1,0.3c0.5-0.1,0.9-0.6,1.3-1.1l0.2-0.3c0.1-0.2,0.2-0.5,0.7-0.5c0,0,0.1,0,0.1,0c0.2,0.1,0.3,0,0.5-0.4l0.4-0.5
			c0.1-0.1,0.1-0.1,0.2-0.1h0.2c0.1,0,0.2,0,0.2,0c0.1,0.1,0.1,0.1,0.1,0.2c0,0,0,0.4,0,0.4s0,0,0,0c0,0,0.3-0.1,0.4-0.2
			c0,0,0.6-0.4,0.6-0.4c0.1,0,0.2-0.1,0.3,0l2.2,0.6c0.4,0.2,0.5,0.5,0.5,0.7c0,0.1,0,0.2,0,0.3c0,0.1,0,0.2,0,0.2
			c0,0.1,0,0.1,0,0.1c0.1,0.1,0.1,0.1,0.1,0.2c0,0,0,0.1,0,0.1c-0.1,0.2-0.3,0.5-0.9,0.5c0,0-1.1,0.1-1.1,0.1c-0.9,0-1.8,0-2.4,0.6
			c0,0-0.6,0.6-0.6,0.6c-0.1,0.1-0.1,0.1-0.2,0.1c-0.4,0-0.7,0.2-1.1,0.5c-0.3,0.2-0.7,0.4-1.1,0.5c-0.3,0.2-0.7,0.2-1,0.2
			c-0.3,0-0.4,0-0.5,0c0.3,0.3,0.8,0.5,1.3,0.6c0,0,0.3,0,0.3,0c0.2,0,0.6,0,0.8,0.4c0,0,0,0.1,0,0.1c0,0.3,0.1,0.4,0.2,0.5
			c0,0,0,0,0,0c0.1-0.1,0.4-0.2,0.7,0c0.1,0.1,0.5,0.5,0.5,0.5l0.6,0.6c0.1,0.1,0.1,0.2,0,0.3c-0.3,0.5-0.8,0.4-1.1,0.3l-0.3,0
			c0,0-0.3,0-0.3,0c-0.5,0.1-1.1,0.2-1.6-0.3c0,0,0,0,0.1,0.1L13.7,38c-0.4-0.3-0.7-0.6-1.1-0.6c-0.5,0.1-0.7,0.3-0.7,0.5
			c0,0,0,0,0,0c0,0,0.1,0.1,0.1,0.1l0.2,0.2c0.1,0.1,0.1,0.1,0.1,0.2c0,0,0,0,0,0.1c0,0.1-0.1,0.2-0.2,0.2c-0.4,0.2-0.8,0.6-0.8,1.1
			c0,0.1,0,0.1,0,0.2c0,0,0,0,0,0.1c0,0,0.1,0,0.1,0c0.2-0.1,0.4-0.2,0.7,0c0.1,0.1,0.2,0.1,0.2,0.2l0,0.3c0,0.4,0.1,0.5,0.2,0.6
			c0.1,0,0.2-0.1,0.2-0.1c0.3-0.1,0.6-0.3,1.1,0c0.1,0,0.2,0,0.5-0.2l0.4-0.2c0,0,0,0,0.1,0c0.8,0,1.1,0.7,1.3,1.1c0,0,0,0,0,0
			c0,0,0,0,0,0c0.3,0.3,0.6,0.5,0.9,0.4c0,0,0-0.1,0-0.1c0-0.1,0-0.2,0-0.3c0-0.1,0-0.2,0-0.3c0-0.3,0.1-0.6,0.5-0.8
			c0.1,0,0.8-0.1,0.8-0.1l0.5,0c0,0,0.1,0,0.1,0c0.7,0.1,1.2,0.1,1.4-0.4c0,0,0.5-0.8,0.6-1c0-0.1,0.1-0.6,0.1-0.6
			c0-0.1,0.1-0.2,0.2-0.2c0.2-0.1,0.5,0,0.7,0.1c0,0,0.1,0,0.2,0c-0.1-0.4-0.2-0.8-0.2-1.1c0-0.2,0-0.4,0-0.6c0.1-0.6,0.4-1,0.7-1.3
			c0.1-0.1,0.2-0.1,0.4-0.1l0.1,0.1c0.1,0,0.2,0.1,0.2,0.2l0.1,0.7c0.1,0.5,0.2,0.9,0.4,1.3c0,0.1,0,0.1,0,0.2l-0.3,1.1L23.3,40
			c-0.2,0.8-0.7,1.4-1.5,1.8c0,0,0,0.1,0,0.1c0,0,0.2,0,0.3,0c0,0,0.2,0,0.3,0c0.8-0.1,1.6-0.5,2.1-1.1c0.1-0.1,0.2-0.1,0.3-0.1
			c0.2,0,0.3,0,0.5-0.1c0.3-0.1,0.6-0.4,1.1-0.1c0.2,0.1,0.4,0.1,0.7,0.1c0.4,0,1.2-0.1,1.4,0.7c0,0,0,0.1,0,0.1l0,0.4
			c0,0.4,0.1,1.1-0.7,1.4c-0.1,0-0.1,0-0.1,0l-0.8-0.3c-0.6-0.3-0.9-0.4-1.3,0c-0.1,0.1-0.2,0.2-0.1,0.3c0.1,0.2,0.4,0.7,0,1
			c0,0,0.1-0.1,0.1-0.1l0,0.1c-0.2,0.4-0.3,0.6-0.3,0.9c0,0,0,0.1,0.3,0c0.3-0.1,0.7,0,1,0.1l0.4,0.1c0,0,0.1,0,0.2,0.1l0.1,0.1
			c0.3,0.2,0.5,0.4,0.8,0.4c0,0,0-0.1,0-0.1l0.2-0.3c0,0,0.5-0.3,0.5-0.3c0.3-0.1,0.4-0.2,0.4-0.3c0.1-0.5,0.5-1,1-1.3
			c0,0,0.1,0,0.2,0c0.1,0,0.5-0.1,0.7-0.3c0,0,0,0,0,0L30.9,43c0,0-0.1-0.1-0.1-0.2c0-0.1,0-0.2,0-0.2c0-0.4,0.2-0.7,0.4-0.9
			c0.2-0.3,0.3-0.4,0.3-0.6c0-0.1,0-0.2-0.1-0.3c0,0,0,0,0-0.1l-0.1-0.5c0-0.3-0.1-0.6-0.3-0.8c0,0-0.6-0.3-0.6-0.3l-0.6-0.3
			c-0.1-0.1-0.1-0.1-0.1-0.3c0-0.3,0.2-0.4,0.5-0.5l0.1,0c0.4-0.1,0.7,0,1,0.1c0.3,0.1,0.4,0.1,0.4,0.1c0-0.2-0.3-0.5-0.5-0.7
			c-0.4-0.3-0.8-0.4-1.3-0.5c-0.7-0.2-1.4-0.3-1.9-1c0-0.1-0.1-0.1-0.1-0.2c0-0.1,0-0.2,0.1-0.2l0.1-0.1c0.1-0.1,0.2-0.1,0.3-0.1
			c0.9,0.2,1.8,0,2.3-0.5c0.3-0.5,0.8-1,1.5-1.2c0.5-0.4,0.6-1,0.6-1.8c0-0.4,0.2-0.8,0.5-1.1c0,0,0.6-0.3,0.6-0.3
			c0.2-0.1,0.3-0.1,0.3-0.1c-0.4-0.2-0.8-0.4-1.2-0.3c-0.1,0-0.1,0-0.2,0c-0.2-0.1-0.2-0.3-0.3-0.4c0,0,0,0,0-0.1
			c0-0.2,0.2-0.4,0.3-0.5l0.1-0.1c0,0,0.1-0.1,0.1-0.1l0.7-0.4c0.9-0.5,1.5-0.8,1.5-1.6c0,0,0,0,0,0c0,0,0-0.1,0-0.1
			c-0.1,0-0.2,0.1-0.3,0.2l-0.5,0.3c-0.4,0.2-0.9,0.4-1.4,0.5c-0.5,0.1-0.9,0.2-1.3,0.4c-0.1,0-0.1,0-0.2,0c-0.2,0-0.3-0.1-0.4-0.3
			c0-0.1,0-0.1,0-0.2c0-0.2,0.1-0.3,0.2-0.4c0.1-0.2,0.4-0.3,0.6-0.5c0.3-0.1,0.4-0.2,0.5-0.4l0.1-0.3c0.1-0.4,0.3-0.9,0.8-1.1
			c0.1,0,0.4-0.2,0.4-0.2c0.1,0,0.1-0.1,0.2-0.1c0,0,0,0-0.1,0c-0.8-0.2-1.5,0.4-1.9,0.7c0,0-0.1,0.1-0.1,0.1l-0.3,0.1
			c-0.5,0.2-1,0.4-1.4,0.8c0,0-0.1,0.1-0.1,0.1c-0.1,0.1-0.3,0-0.5-0.1c-0.1-0.1-0.2-0.2-0.2-0.4c-0.1-1.2,0.8-2.1,1.6-2.8l0.2-0.2
			c0,0,0.1-0.1,0.1-0.1l0.5-0.2c0.4-0.2,0.8-0.5,1.4-0.3c0.4,0.2,0.8,0.4,1.2,0.3c0.2-0.1,0.4-0.3,0.6-0.6c0.2-0.2,0.4-0.5,0.7-0.7
			c0.3-0.1,0.6,0,0.8,0c0.1,0,0.3,0.1,0.3,0.1c0,0,0-0.1,0-0.1c0,0,0-0.1,0-0.1c0-0.2-0.1-0.4-0.4-0.7l-0.3-0.4c0,0-0.1-0.1-0.1-0.2
			c0,0,0-0.1,0-0.1c0.1-0.2,0.1-0.5,0.1-0.7c0-0.6-0.2-1.1-0.7-1.5c-0.1-0.1-0.4-0.2-0.7-0.2c0,0.1,0.1,0.2,0.1,0.2l0.3,0.6
			c0,0.1,0,0.1,0,0.2c0,1.3-1.1,1.9-2.1,2.4l-0.8,0.4c-1.9,0.9-4.3,2.4-4.5,4.9c0,1.3,0.6,2.5,1.5,3.5c0,0,0,0,0,0.1l0.3,0.5
			c0.4,0.6,0.8,1.2,0.8,2c0,0.2,0,0.4-0.1,0.6C29.9,34,29.1,34,28.7,34c-1.8-0.1-2.8-2-3.6-3.3l-0.1-0.2c0,0-0.2-0.3-0.2-0.3
			c-0.2-0.4-0.4-0.9-0.5-1.4c0-0.1,0-0.2,0.1-0.3c0.1-0.1,0.3-0.3,0.7,0c0,0,0.4,0.6,0.4,0.6c0,0.1,0.1,0.1,0.1,0.2
			c0-0.1,0.1-0.2,0.1-0.3c0-0.3-0.1-0.7-0.3-1l0-0.1c-0.1-0.2-0.3-0.3-0.5-0.5c-0.3-0.2-0.6-0.5-0.7-0.9c0,0,0-0.1,0-0.1
			c0,0,0,0,0-0.1c0-0.4,0.4-0.5,0.5-0.6c0,0,0.1,0,0.1,0c-0.1-0.5-0.2-1-0.2-1.5c0-0.2,0-0.5,0-0.8c0,0,0,0,0,0c0,0,0,0,0,0
			c0,0,0,0,0,0l0.4-0.4c0.1-0.1,0.1-0.1,0.1-0.1c-0.1-0.5-0.2-1.1-0.2-1.6c0-0.2,0-0.4,0-0.6c0,0,0.2-0.5,0.2-0.5
			c0.1-0.2,0.1-0.4,0.1-0.5c0-0.1,0-0.1,0-0.2c-0.3-0.2-0.3-0.5-0.4-0.7c0,0,0-0.2,0-0.2c0,0,0,0,0,0c0,0,0,0,0.1,0
			c-0.8,0-1.4-0.3-2-0.6l-0.7-0.3c-0.2,0-0.3,0-0.5,0.1l-0.4,0.1c0,0-0.4,0.1-0.4,0.1c-0.4,0.1-0.7,0.1-1,0.4
			C20,18.4,20,18.6,20,18.9l0,0.2c0,0,0,0.1,0,0.1c-0.1,0.2-0.2,0.3-0.3,0.3c-0.2,0.1-0.4,0-0.5-0.1l0,0c-0.6-0.3-0.8-0.9-0.6-1.5
			c0-0.1-0.1-0.2-0.1-0.2c-0.1-0.1-0.4-0.2-0.6-0.1c-0.2,0.1-0.3,0.3-0.4,0.6c0,0,0,0.1-0.1,0.2c0,0,0,0,0,0.1
			c0,0.2,0.1,0.4,0.1,0.5c0.3,0.3,0.6,0.5,1,0.7l0.9,0.6c0.1,0,0.1,0.1,0.1,0.1c0,0.1,0,0.2,0,0.3c0,0.3-0.2,0.6-0.3,0.8
			c0,0,0,0,0,0c0.1,0.1,0.3,0.2,0.3,0.5c0,0,0,0.1,0,0.1c0,0.1-0.1,0.2-0.2,0.3c-0.6,0.1-1.1,0-1.6-0.3c0,0-0.3-0.4-0.3-0.4
			c-0.1-0.2-0.1-0.2-0.2-0.2c0,0-0.1,0.2-0.1,0.2L16.9,22c0,0,0,0.2,0,0.2c0,0.2-0.1,0.5-0.3,0.7c-0.1,0.1-0.2,0.1-0.2,0.1l-0.3,0
			c-1.2-0.4-2.3-1-3.5-1.9c-0.5-0.4-0.9-0.9-1.3-1.4l-0.3-0.4c0,0,0-0.1-0.1-0.1l-0.1-0.4c-0.2-0.7-0.4-1.2-0.9-1.4
			C10,17.5,9.9,17.5,9.9,17.5L9.9,17.5z M10.7,21.8L10.7,21.8C10.7,21.8,10.7,21.8,10.7,21.8L10.7,21.8L10.7,21.8z M8.3,21.3
			c0,0,0.1,0,0.1,0C8.4,21.3,8.4,21.3,8.3,21.3L8.3,21.3z M19,21.7c0-0.1,0.1-0.1,0.1-0.1v0C19.1,21.6,19.1,21.7,19,21.7L19,21.7z
			 M24.8,25.7C24.8,25.7,24.8,25.7,24.8,25.7C24.8,25.7,24.8,25.6,24.8,25.7C24.8,25.6,24.8,25.7,24.8,25.7L24.8,25.7z M17.7,30.6
			C17.7,30.6,17.7,30.6,17.7,30.6C17.7,30.6,17.7,30.6,17.7,30.6L17.7,30.6L17.7,30.6z M17.8,30.6C17.8,30.6,17.8,30.6,17.8,30.6
			C17.8,30.6,17.8,30.6,17.8,30.6C17.8,30.6,17.8,30.6,17.8,30.6L17.8,30.6z M11.4,32.5C11.5,32.5,11.5,32.5,11.4,32.5
			C11.5,32.5,11.5,32.5,11.4,32.5L11.4,32.5z M22,38.8c0,0,0,0.1,0,0.1C22,38.9,22,38.8,22,38.8C22,38.8,22,38.8,22,38.8L22,38.8z
			 M22.4,41.9C22.4,41.9,22.4,41.9,22.4,41.9C22.4,41.9,22.4,41.9,22.4,41.9L22.4,41.9z"/>
		<path class="st3" d="M0.7,17.5c0-5.2,0-10.9,0-17.6h44.1c0,0,0,2.6,0,17.7c0,22.3-22.2,35.4-22.2,35.4S0.7,39.3,0.7,17.5L0.7,17.5
			z"/>
		<path class="st4" d="M31.5,43.2L31.5,43.2C31.5,43.2,31.5,43.2,31.5,43.2L31.5,43.2L31.5,43.2L31.5,43.2L31.5,43.2L31.5,43.2
			L31.5,43.2L31.5,43.2L31.5,43.2L31.5,43.2L31.5,43.2L31.5,43.2c-0.1-0.1-0.3-0.4-0.4-0.4c-0.2-0.8,1-1.3,0.4-2.1
			c-0.1-0.5,0-1.1-0.5-1.5c-0.3-0.3-0.8-0.3-1.2-0.6c0-0.2,0.3-0.1,0.4-0.2c0.6-0.2,1.2,0.6,1.7,0c0.1-0.4-0.3-0.8-0.6-1.1
			c-1-0.7-2.4-0.4-3.1-1.4l0.1-0.1c0.9,0.2,1.9,0,2.6-0.6c0.4-0.5,0.8-1,1.4-1.2c0.6-0.5,0.7-1.3,0.7-2.1c0-0.3,0.2-0.6,0.4-0.8
			c0.3-0.3,1.2-0.2,1.1-0.9c-0.5-0.3-1-0.5-1.6-0.4c-0.3-0.1,0.1-0.3,0.1-0.5c0.9-0.6,2.4-1,2.3-2.3c-0.1-0.1-0.1-0.4-0.3-0.4
			c-0.4,0.1-0.6,0.4-1,0.6c-0.9,0.5-2,0.4-2.8,0.9c-0.2,0-0.1-0.2-0.1-0.3c0.3-0.4,1-0.5,1.2-1c0.2-0.4,0.3-1,0.7-1.2
			c0.3-0.2,0.8-0.2,0.9-0.6c0-0.2-0.3-0.3-0.4-0.4c-0.8-0.3-1.6,0.2-2.2,0.8c-0.6,0.3-1.3,0.5-1.8,1c-0.1,0-0.2,0-0.2-0.2
			c-0.1-1.2,0.9-2,1.7-2.7c0.5-0.1,1-0.8,1.6-0.5c0.4,0.2,0.9,0.5,1.4,0.3c0.6-0.2,0.8-1,1.4-1.3c0.4-0.1,1,0.5,1.3-0.1
			c0.1-0.6-0.4-1-0.7-1.5c0.3-0.9,0.1-1.9-0.6-2.6c-0.3-0.2-0.8-0.3-1.2-0.2c-0.3,0.4,0.3,0.7,0.3,1.1c0.1,1.6-1.6,2-2.7,2.7
			c-2,1-4.5,2.6-4.6,5.2c0,1.4,0.6,2.7,1.6,3.7c0.5,0.9,1.4,1.7,1,2.9c-0.2,0.5-0.7,0.5-1.2,0.5c-1.7-0.1-2.7-2-3.4-3.4
			c-0.2-0.5-0.5-1-0.6-1.6c0.1-0.1,0.2-0.1,0.3,0c0.3,0.3,0.3,1,0.8,0.9c0.4-0.6,0.1-1.3-0.1-1.9c-0.3-0.5-1-0.8-1.2-1.4
			c0-0.4,0.6-0.2,0.6-0.6c-0.2-0.8-0.3-1.5-0.2-2.2c0.1-0.3,0.6-0.3,0.6-0.7c-0.2-0.7-0.2-1.4-0.2-2.2c0.1-0.5,0.5-1,0.2-1.4
			c-0.5-0.1-0.1-0.8-0.6-0.9c-1,0-1.7-0.5-2.5-0.8c-0.4-0.1-0.8,0.1-1.1,0.2c-0.5,0.1-1.1,0.1-1.5,0.5c-0.3,0.3-0.2,0.7-0.2,1.1
			c-0.1,0.3-0.3,0-0.4,0c-0.4-0.2-0.5-0.7-0.4-1.1c0.1-0.2,0-0.4-0.2-0.6c-0.3-0.2-0.6-0.3-1-0.1c-0.4,0.1-0.5,0.6-0.7,1
			c0,0.3,0,0.6,0.2,0.9c0.6,0.6,1.4,0.8,2,1.4c0.1,0.3-0.1,0.7-0.3,1c0,0.3,0.4,0.3,0.4,0.6c-0.5,0.1-0.9,0-1.3-0.3
			c-0.2-0.2-0.3-0.6-0.7-0.7c-0.3,0-0.4,0.5-0.5,0.7c-0.1,0.3,0,0.7-0.3,0.9l-0.3,0c-1.2-0.4-2.3-1-3.3-1.8c-0.6-0.5-1-1.2-1.5-1.8
			c-0.2-0.7-0.3-1.7-1.3-2c-0.2,0-0.5,0.1-0.5,0.3l-0.1,0.3c-0.5,0-0.9-0.3-1.4-0.1c-0.2,0.1-0.5,0.3-0.6,0.6c0,0.5,0.6,0.3,0.7,0.7
			c0,0.4,0.3,0.7,0.5,1c-0.1,0.2-0.3,0.3-0.5,0.5l-0.3,0.7c0.1,0.2,0.3,0.5,0.5,0.5c0.4-0.2,0.8,0.1,1.2,0.1c0.3,0,0.7-0.2,0.7,0.2
			c0.1,0.3,0,0.7,0,1c-0.4,0.5-0.9,1-1.4,1.2c-0.2,0.1-0.2,0.4-0.1,0.5c0.2,0.3,0.7,0.2,1,0.1c0.6,0,1.1-0.4,1.6-0.4
			c0.1,0.3,0.4,0.6,0.7,0.8c0.5,0.1,0.6-0.5,1-0.3c0.4,0.3,0.3,0.8,0.6,1.2c0,0.2-0.2,0.2-0.3,0.3c-0.5,0.2-1.2,0-1.6,0.4
			c-0.1,0.2,0.1,0.4,0.3,0.5c0.4,0.2,1,0.3,1.5,0.4c0.5,0.1,1-0.1,1.4,0L15,27.8l-1.4,1c-0.6,0.3-1.3,0.4-1.9,0.7
			c-0.9,0.2-1.3-0.9-2.1-0.8c-0.3,0-0.6,0.1-0.8,0.3c-0.2,0.2-0.2,0.5-0.2,0.8c0.1,0.3,0.5,0.1,0.5,0.4c0,0.8-0.7,1.4-0.8,2.2
			c0,0.2,0,0.5,0.3,0.5c0.1,0.1,0.4,0,0.5-0.1c0.2-0.2,0.2-0.4,0.5-0.5c0.5,0.1,1,0.1,1.4-0.3c0.2,0,0.3,0.1,0.3,0.3
			c0,0.2,0,0.4,0.2,0.5c0.7,0,1.1-0.7,1.4-1.2c0.3-0.1,0.7-0.3,1-0.1c0.1,0.5-0.3,0.8-0.4,1.3c0,0.1,0.2,0.2,0.3,0.3
			c0.9-0.1,1.4-0.9,1.9-1.6c0.1-0.2,0.2-0.4,0.4-0.4c0.7,0.2,0.8-0.6,1.2-0.9h0.2c0.1,0.2-0.1,0.3,0,0.6c0.3,0.3,0.6,0,0.9-0.1
			l0.6-0.4c0.7,0.2,1.5,0.4,2.2,0.6c0.6,0.2,0,0.9,0.4,1.2c-0.1,0.2-0.3,0.3-0.6,0.3c-1.3,0.2-2.7-0.2-3.8,0.8l-0.6,0.6
			c-1,0-1.4,0.8-2.3,1c-0.6,0.4-1.5-0.2-1.8,0.5c0.3,0.6,1,0.8,1.6,1c0.3,0.1,0.7,0,0.8,0.3c0,0.3,0.1,0.6,0.4,0.8
			c0.3,0.1,0.4-0.3,0.6-0.1c0.3,0.4,0.8,0.6,1,1c-0.2,0.4-0.7,0.1-1,0.1l-0.1,0c-0.5,0.1-1.2,0.3-1.6-0.2c-0.5-0.4-1-1-1.8-1
			c-0.4,0.1-0.9,0.3-1,0.8c-0.1,0.3,0.2,0.4,0.3,0.6c-0.5,0.3-1.1,0.9-0.9,1.6c0.1,0.1,0.1,0.3,0.3,0.3c0.3,0,0.5-0.2,0.7-0.1
			c0.1,0.4-0.1,1.1,0.5,1.3c0.4-0.1,0.7-0.5,1.1-0.2c0.4,0.2,0.8-0.2,1.2-0.3c0.6,0,0.8,0.6,1,1c0.4,0.3,0.9,0.8,1.4,0.5
			c0.3-0.5-0.3-1.1,0.3-1.4c0.4-0.1,0.8,0,1.2-0.1c0.6,0.1,1.4,0.1,1.8-0.6l0.6-1l0.1-0.6c0.4-0.1,0.9,0.5,1.1-0.1
			c-0.2-0.6-0.3-1.2-0.2-1.8c0.1-0.4,0.3-0.8,0.6-1.1l0.1,0.1c0.2,0.7,0.2,1.4,0.5,2.1c-0.1,0.7-0.4,1.2-0.5,1.9
			c-0.2,0.7-0.7,1.2-1.3,1.6c-0.1,0.1-0.3,0.3-0.2,0.5c0.2,0.3,0.6,0.1,0.9,0.2c0.9-0.1,1.7-0.5,2.3-1.2c0.6,0.2,1-0.6,1.5-0.3
			c0.6,0.5,1.7-0.3,1.9,0.6c-0.1,0.5,0.3,1.3-0.4,1.5c-0.8-0.1-1.6-1.1-2.4-0.2c-0.2,0.2-0.3,0.4-0.2,0.6c0.1,0.2,0.3,0.5,0.1,0.6
			c-0.2,0.3-0.5,0.8-0.3,1.2c0.1,0.3,0.4,0.3,0.7,0.2c0.4-0.2,0.8,0.2,1.3,0.2c0.4,0.3,0.8,0.6,1.2,0.6c0.2-0.1,0.2-0.4,0.3-0.5
			c0.3-0.3,1-0.2,1-0.8c0.1-0.4,0.5-0.8,0.8-1C30.4,43.8,31.3,43.6,31.5,43.2L31.5,43.2L31.5,43.2z"/>
		<path class="st5" d="M31.5,43.2L31.5,43.2C31.5,43.2,31.5,43.2,31.5,43.2L31.5,43.2L31.5,43.2L31.5,43.2L31.5,43.2L31.5,43.2
			L31.5,43.2L31.5,43.2L31.5,43.2L31.5,43.2L31.5,43.2L31.5,43.2c-0.1-0.1-0.3-0.4-0.4-0.4c-0.2-0.8,1-1.3,0.4-2.1
			c-0.1-0.5,0-1.1-0.5-1.5c-0.3-0.3-0.8-0.3-1.2-0.6c0-0.2,0.3-0.1,0.4-0.2c0.6-0.2,1.2,0.6,1.7,0c0.1-0.4-0.3-0.8-0.6-1.1
			c-1-0.7-2.4-0.4-3.1-1.4l0.1-0.1c0.9,0.2,1.9,0,2.6-0.6c0.4-0.5,0.8-1,1.4-1.2c0.6-0.5,0.7-1.3,0.7-2.1c0-0.3,0.2-0.6,0.4-0.8
			c0.3-0.3,1.2-0.2,1.1-0.9c-0.5-0.3-1-0.5-1.6-0.4c-0.3-0.1,0.1-0.3,0.1-0.5c0.9-0.6,2.4-1,2.3-2.3c-0.1-0.1-0.1-0.4-0.3-0.4
			c-0.4,0.1-0.6,0.4-1,0.6c-0.9,0.5-2,0.4-2.8,0.9c-0.2,0-0.1-0.2-0.1-0.3c0.3-0.4,1-0.5,1.2-1c0.2-0.4,0.3-1,0.7-1.2
			c0.3-0.2,0.8-0.2,0.9-0.6c0-0.2-0.3-0.3-0.4-0.4c-0.8-0.3-1.6,0.2-2.2,0.8c-0.6,0.3-1.3,0.5-1.8,1c-0.1,0-0.2,0-0.2-0.2
			c-0.1-1.2,0.9-2,1.7-2.7c0.5-0.1,1-0.8,1.6-0.5c0.4,0.2,0.9,0.5,1.4,0.3c0.6-0.2,0.8-1,1.4-1.3c0.4-0.1,1,0.5,1.3-0.1
			c0.1-0.6-0.4-1-0.7-1.5c0.3-0.9,0.1-1.9-0.6-2.6c-0.3-0.2-0.8-0.3-1.2-0.2c-0.3,0.4,0.3,0.7,0.3,1.1c0.1,1.6-1.6,2-2.7,2.7
			c-2,1-4.5,2.6-4.6,5.2c0,1.4,0.6,2.7,1.6,3.7c0.5,0.9,1.4,1.7,1,2.9c-0.2,0.5-0.7,0.5-1.2,0.5c-1.7-0.1-2.7-2-3.4-3.4
			c-0.2-0.5-0.5-1-0.6-1.6c0.1-0.1,0.2-0.1,0.3,0c0.3,0.3,0.3,1,0.8,0.9c0.4-0.6,0.1-1.3-0.1-1.9c-0.3-0.5-1-0.8-1.2-1.4
			c0-0.4,0.6-0.2,0.6-0.6c-0.2-0.8-0.3-1.5-0.2-2.2c0.1-0.3,0.6-0.3,0.6-0.7c-0.2-0.7-0.2-1.4-0.2-2.2c0.1-0.5,0.5-1,0.2-1.4
			c-0.5-0.1-0.1-0.8-0.6-0.9c-1,0-1.7-0.5-2.5-0.8c-0.4-0.1-0.8,0.1-1.1,0.2c-0.5,0.1-1.1,0.1-1.5,0.5c-0.3,0.3-0.2,0.7-0.2,1.1
			c-0.1,0.3-0.3,0-0.4,0c-0.4-0.2-0.5-0.7-0.4-1.1c0.1-0.2,0-0.4-0.2-0.6c-0.3-0.2-0.6-0.3-1-0.1c-0.4,0.1-0.5,0.6-0.7,1
			c0,0.3,0,0.6,0.2,0.9c0.6,0.6,1.4,0.8,2,1.4c0.1,0.3-0.1,0.7-0.3,1c0,0.3,0.4,0.3,0.4,0.6c-0.5,0.1-0.9,0-1.3-0.3
			c-0.2-0.2-0.3-0.6-0.7-0.7c-0.3,0-0.4,0.5-0.5,0.7c-0.1,0.3,0,0.7-0.3,0.9l-0.3,0c-1.2-0.4-2.3-1-3.3-1.8c-0.6-0.5-1-1.2-1.5-1.8
			c-0.2-0.7-0.3-1.7-1.3-2c-0.2,0-0.5,0.1-0.5,0.3l-0.1,0.3c-0.5,0-0.9-0.3-1.4-0.1c-0.2,0.1-0.5,0.3-0.6,0.6c0,0.5,0.6,0.3,0.7,0.7
			c0,0.4,0.3,0.7,0.5,1c-0.1,0.2-0.3,0.3-0.5,0.5l-0.3,0.7c0.1,0.2,0.3,0.5,0.5,0.5c0.4-0.2,0.8,0.1,1.2,0.1c0.3,0,0.7-0.2,0.7,0.2
			c0.1,0.3,0,0.7,0,1c-0.4,0.5-0.9,1-1.4,1.2c-0.2,0.1-0.2,0.4-0.1,0.5c0.2,0.3,0.7,0.2,1,0.1c0.6,0,1.1-0.4,1.6-0.4
			c0.1,0.3,0.4,0.6,0.7,0.8c0.5,0.1,0.6-0.5,1-0.3c0.4,0.3,0.3,0.8,0.6,1.2c0,0.2-0.2,0.2-0.3,0.3c-0.5,0.2-1.2,0-1.6,0.4
			c-0.1,0.2,0.1,0.4,0.3,0.5c0.4,0.2,1,0.3,1.5,0.4c0.5,0.1,1-0.1,1.4,0L15,27.8l-1.4,1c-0.6,0.3-1.3,0.4-1.9,0.7
			c-0.9,0.2-1.3-0.9-2.1-0.8c-0.3,0-0.6,0.1-0.8,0.3c-0.2,0.2-0.2,0.5-0.2,0.8c0.1,0.3,0.5,0.1,0.5,0.4c0,0.8-0.7,1.4-0.8,2.2
			c0,0.2,0,0.5,0.3,0.5c0.1,0.1,0.4,0,0.5-0.1c0.2-0.2,0.2-0.4,0.5-0.5c0.5,0.1,1,0.1,1.4-0.3c0.2,0,0.3,0.1,0.3,0.3
			c0,0.2,0,0.4,0.2,0.5c0.7,0,1.1-0.7,1.4-1.2c0.3-0.1,0.7-0.3,1-0.1c0.1,0.5-0.3,0.8-0.4,1.3c0,0.1,0.2,0.2,0.3,0.3
			c0.9-0.1,1.4-0.9,1.9-1.6c0.1-0.2,0.2-0.4,0.4-0.4c0.7,0.2,0.8-0.6,1.2-0.9h0.2c0.1,0.2-0.1,0.3,0,0.6c0.3,0.3,0.6,0,0.9-0.1
			l0.6-0.4c0.7,0.2,1.5,0.4,2.2,0.6c0.6,0.2,0,0.9,0.4,1.2c-0.1,0.2-0.3,0.3-0.6,0.3c-1.3,0.2-2.7-0.2-3.8,0.8l-0.6,0.6
			c-1,0-1.4,0.8-2.3,1c-0.6,0.4-1.5-0.2-1.8,0.5c0.3,0.6,1,0.8,1.6,1c0.3,0.1,0.7,0,0.8,0.3c0,0.3,0.1,0.6,0.4,0.8
			c0.3,0.1,0.4-0.3,0.6-0.1c0.3,0.4,0.8,0.6,1,1c-0.2,0.4-0.7,0.1-1,0.1l-0.1,0c-0.5,0.1-1.2,0.3-1.6-0.2c-0.5-0.4-1-1-1.8-1
			c-0.4,0.1-0.9,0.3-1,0.8c-0.1,0.3,0.2,0.4,0.3,0.6c-0.5,0.3-1.1,0.9-0.9,1.6c0.1,0.1,0.1,0.3,0.3,0.3c0.3,0,0.5-0.2,0.7-0.1
			c0.1,0.4-0.1,1.1,0.5,1.3c0.4-0.1,0.7-0.5,1.1-0.2c0.4,0.2,0.8-0.2,1.2-0.3c0.6,0,0.8,0.6,1,1c0.4,0.3,0.9,0.8,1.4,0.5
			c0.3-0.5-0.3-1.1,0.3-1.4c0.4-0.1,0.8,0,1.2-0.1c0.6,0.1,1.4,0.1,1.8-0.6l0.6-1l0.1-0.6c0.4-0.1,0.9,0.5,1.1-0.1
			c-0.2-0.6-0.3-1.2-0.2-1.8c0.1-0.4,0.3-0.8,0.6-1.1l0.1,0.1c0.2,0.7,0.2,1.4,0.5,2.1c-0.1,0.7-0.4,1.2-0.5,1.9
			c-0.2,0.7-0.7,1.2-1.3,1.6c-0.1,0.1-0.3,0.3-0.2,0.5c0.2,0.3,0.6,0.1,0.9,0.2c0.9-0.1,1.7-0.5,2.3-1.2c0.6,0.2,1-0.6,1.5-0.3
			c0.6,0.5,1.7-0.3,1.9,0.6c-0.1,0.5,0.3,1.3-0.4,1.5c-0.8-0.1-1.6-1.1-2.4-0.2c-0.2,0.2-0.3,0.4-0.2,0.6c0.1,0.2,0.3,0.5,0.1,0.6
			c-0.2,0.3-0.5,0.8-0.3,1.2c0.1,0.3,0.4,0.3,0.7,0.2c0.4-0.2,0.8,0.2,1.3,0.2c0.4,0.3,0.8,0.6,1.2,0.6c0.2-0.1,0.2-0.4,0.3-0.5
			c0.3-0.3,1-0.2,1-0.8c0.1-0.4,0.5-0.8,0.8-1C30.4,43.8,31.3,43.6,31.5,43.2L31.5,43.2L31.5,43.2z"/>
		<path class="st2" d="M18.3,17.9c-0.1,0.4-0.1,0.7,0.2,1c0.6,0.7,1.5,0.9,1.9,1.6l-0.2,0c-0.7-0.5-1.4-1-2.1-1.4
			c-0.3-0.2-0.5-0.5-0.4-0.9c0.1-0.3,0.1-0.5,0.4-0.6C18.1,17.7,18.3,17.8,18.3,17.9L18.3,17.9L18.3,17.9z"/>
		<path class="st2" d="M24.4,18.6c0.1,0.2,0,0.5,0.4,0.6c0.1,0,0.2,0.1,0.2,0.2c0,0.3-0.1,0.6-0.2,0.9c-0.1,0.2-0.4,0.3-0.4,0.6
			c0,0.2,0.3,0.3,0.3,0.4l0,1.2c-0.7,0.2-0.4,1.1-0.4,1.6c-0.1,0.4,0,0.8,0,1.1c-0.2,0.1-0.5,0.1-0.6,0.3c0,0.4,0.2,0.8,0.3,1.1
			c0.3,0.4,0.8,0.5,0.8,1c-0.4,0-0.7-0.2-1.1-0.3c-0.5-0.3-0.9-0.9-1.2-1.4c-0.1-0.1-0.2-0.1-0.3,0c-0.1,0.3-0.1,0.8-0.4,1.1
			c-0.4-0.2-0.3-1.2-1-0.9c-0.2,1.2-1,2.2-1.8,3.3c-0.2,0.1-0.2,0.3-0.4,0.3c0.4-1,0.7-2.1,0.3-3.2c-0.1-0.2-0.3-0.1-0.4-0.1
			c-0.2,0.1-0.3,0.4-0.5,0.3c-0.2-0.3,0.2-0.8-0.3-1c-0.4,0.1-0.6,0.4-1,0.6c-0.9,0.5-1.9,0.7-2.9,0.8c-0.2,0-0.4-0.1-0.5-0.1
			c0.3-0.3,0.6-0.3,1-0.5c1.2-0.7,2-2.1,3-3c-0.1-0.4-0.5-1-0.1-1.4c0.3,0,0.4,0.3,0.7,0.4c0.4,0.2,1,0.4,1.4,0.2
			c0.4-0.1,0.7-0.5,0.7-0.8c0-0.2-0.1-0.3-0.2-0.3c-0.1,0-0.3,0-0.3-0.1c0-0.2,0.1-0.3,0.3-0.4c0.5,0,1,1.1,1.3,0.2
			c0.2-0.7-0.4-1.2-0.9-1.6c-0.1-0.1-0.2-0.3-0.1-0.5c0.4-0.2-0.1-0.5,0.2-0.8c0.5-0.4,1.2-0.1,1.8-0.5C23,17.8,23.6,18.4,24.4,18.6
			L24.4,18.6L24.4,18.6z"/>
		<path class="st2" d="M10.7,18.4c0,0.1,0.1,0.3,0,0.4c-0.1,0.1-0.3,0-0.3-0.1c-0.2-0.1-0.3-0.4-0.2-0.5
			C10.2,17.6,10.7,18.1,10.7,18.4L10.7,18.4L10.7,18.4z"/>
		<path class="st2" d="M10.3,19.2c0.8,0.4,1.4,1.2,1.9,1.8c1.2,1,2.6,1.9,4.1,2.3c0.1,0.2-0.1,0.4-0.3,0.6c-0.5,0.5-0.9,1.1-1.4,1.6
			c-0.1,0-0.2,0-0.3,0c-0.5-0.5-0.5-1.5-1.4-1.5c-0.3,0-0.5,0.3-0.8,0.1c-0.3-0.2,0.1-0.8-0.3-0.9c-0.5,0.2-0.9,0.8-1.5,0.7
			c0.4-0.6,1-1.3,0.7-2.2c-0.1-0.4-0.3-0.8-0.7-0.9c-0.3,0-0.5,0.4-0.9,0.2c-0.1-0.3-0.8-0.2-0.5-0.6c0.2-0.3,1.1-0.4,0.7-1
			c-0.2-0.3-0.8-0.1-0.8-0.6c0.1-0.3-0.2-0.6,0-0.8C9.5,18.1,9.9,18.8,10.3,19.2L10.3,19.2L10.3,19.2z"/>
		<path class="st2" d="M35.6,19.6c0.1,0.5-0.3,0.8-0.2,1.2c0.1,0.2,0.5,0.3,0.5,0.5c-1.1,0-1.3,1.5-2.4,1.4
			c-0.5-0.1-0.8-0.6-1.4-0.3c-1.4,0.7-2.9,1.6-3.3,3.3c-0.2,0.6-0.1,1.4,0.3,1.9c0.1,0.1,0.3,0.1,0.4,0c0.3-0.5,0.5-1.2,1.2-1.4
			c0.4-0.1,0.8-0.3,1.2-0.5c0.1,0,0.1-0.1,0.2,0.1c-0.2,0.5-0.4,1.1-1,1.3c-0.4,0.3-0.8,0.8-0.8,1.3c0,0.3-0.1,0.6,0.1,0.8
			c0.2,0.2,0.4-0.1,0.6-0.2c0.8-0.9,1.9-1,3-1.1c0.1,0.1-0.1,0.3-0.2,0.3c-1,0.3-1.8,1.1-2.2,2c0,0.1,0.1,0.3,0.2,0.3
			c0.5-0.1,0.8-0.3,1.3-0.3c0.1,0.3-0.4,0.3-0.5,0.6c-0.9,0.8,0,2.5-1.5,2.8c-0.4,0.1-0.4,0.6-0.7,0.9c-0.5,0.6-1.3,0.8-2.1,0.7
			c-0.6,0.1-1.1-0.8-1.6-0.2c0.1,0.6,0.5,0.9,0.8,1.4c0.7,0.7,1.7,0.8,2.7,1c0.1,0,0.2,0.1,0.3,0.2c0,0.2-0.3,0.1-0.4,0.1
			c-0.6,0.1-1.2,0.2-1.8-0.1c-0.1,0-0.2,0.1-0.2,0.2c0.1,0.6,0.8,0.9,1.2,1.2c0.4,0.2,1,0.1,1.2,0.7v0.7c0.2,0.3,0.3,0.7,0.2,1.1
			c-0.4,0.5-0.7,1.1-0.4,1.7c-0.2,0.1-0.4,0-0.6,0.1c-0.2,0.4-0.8,0.5-0.9,0.9c0,0.3-0.2,0.7-0.6,0.7c-0.3,0-0.5,0.1-0.8,0.1
			c-0.2-0.2,0.1-0.5-0.2-0.6c-0.4-0.1-0.5,0.5-1,0.3c-0.2-0.1-0.4-0.2-0.5-0.4c0-0.3,0.2-0.3,0.4-0.5c1-0.1,2.2-0.3,2.5-1.3
			c0.1-0.5-0.2-0.9-0.1-1.3c-0.1-0.6-0.7-0.9-1.2-1c-0.5-0.1-1.1,0.1-1.5-0.3c-0.1-0.1-0.3-0.2-0.5-0.1c-0.1,0-0.2,0.2-0.4,0.1
			c-0.1-0.1-0.3-0.3-0.5-0.1c-0.3,0.7-0.9,1.4-1.7,1.6c-0.1-0.2,0.1-0.4,0.2-0.7c0.3-0.5,0.5-1.2,0.6-1.8c0.2-0.3,0.5-0.7,0.3-1.2
			c-0.3-1-0.8-2.1-0.5-3.2c0.2-1.3-0.1-2.6-1.1-3.5c-0.5-0.3-1-0.9-1.7-1c-0.4-0.1-1.1,0-1.3-0.4c0.1-0.5,0.6-0.7,0.8-1.1l0.8-1.2
			c0.3-0.1,0.2,0.4,0.5,0.4c0.6,0,0.6-1,1.2-0.7c0.3,0.4,0.7,0.5,1,0.9c0.4,1.6,1,3.2,2.1,4.6c0.9,1.1,2.2,2,3.6,1.6
			c0.4-0.3,0.9-0.7,1-1.2c0.4-2.6-3-3.9-2.7-6.5c0.2-2.5,2.7-3.8,4.7-4.7c1.1-0.6,2.5-1.4,2.6-2.8c0-0.1,0-0.2,0.1-0.4
			C35.6,18.7,35.6,19.2,35.6,19.6L35.6,19.6L35.6,19.6z"/>
		<path class="st2" d="M17.7,27.4c0.3,0.1,0.7-0.3,0.8,0.1c-0.1,0.6-0.1,1.3-0.4,1.8c-0.3,0.3-0.7,0.1-1,0.2
			c-0.4,0.1-0.5,1.2-1.1,0.5c-0.2-0.1-0.4,0.1-0.5,0.3c-0.2,0.5-0.5,1.1-0.9,1.5c-0.1,0.1-0.2,0.1-0.3,0c-0.1-0.4,0.2-1-0.3-1.2
			c-0.2,0-0.4,0.1-0.6,0.2c-0.4,0-1,0-1.2,0.4c-0.1,0.2-0.1,0.5-0.3,0.5c-0.3-0.1-0.6-0.2-0.7-0.5c-0.1-0.1-0.3-0.2-0.4-0.1
			c-0.2,0.2-0.3,0.6-0.7,0.6c-0.3,0-0.5-0.1-0.8-0.2c0.1-0.7,0.8-0.8,1.3-1c0.9-0.2,1.6-0.8,2.5-1c1.4-0.5,2.6-1.6,3.7-2.7
			c0.2-0.1,0.3-0.1,0.5-0.1C17.4,27,17.4,27.3,17.7,27.4L17.7,27.4L17.7,27.4z"/>
		<path class="st2" d="M10.7,30c-0.3,0.2-0.7,0.3-1,0.1c-0.2-0.2-0.1-0.5-0.1-0.8c0.1-0.2,0.3-0.1,0.5-0.1
			C10.3,29.6,10.7,29.7,10.7,30L10.7,30L10.7,30z"/>
		<path class="st2" d="M23,33.8c0,0.4-0.1,0.7-0.3,1.1c-0.5,0.5-1,1.1-1.1,1.8c0,0.5-0.1,1-0.1,1.4c-0.1,0.1-0.3-0.1-0.3-0.1
			c-0.2-0.3-0.2-1.1-0.8-1c-0.3,0.3-0.6,0.9-0.4,1.3c0.3,0.4,0.8,0.7,0.5,1.2c-0.4,0.2-0.3,0.9-0.9,1c-0.9,0.1-1.8-0.3-2.5,0.3
			c-0.2,0.2-0.4,0.5-0.5,0.8c-0.4,0.1-0.3-0.5-0.5-0.7c-0.1-0.2-0.4-0.1-0.6-0.2c-0.3-0.1-0.6-0.5-1-0.2c-0.3,0.2-0.7,0.6-1.1,0.3
			l-0.5-0.1c0-0.2,0.2-0.4,0-0.6l-1-0.5c-0.1-0.1,0-0.2,0.1-0.3c0.8-0.5,1.8,0.1,2.8-0.1c0.6-0.2,1.2-0.1,1.9-0.1
			c0.4,0,0.8,0.1,1.1-0.2c0.1-0.2,0.2-0.5,0.1-0.7c-0.3-0.6-1.2-0.8-1.3-1.5c-0.1-0.1-0.2-0.3-0.3-0.3c-0.2-0.1-0.4,0.2-0.6,0.1
			c-0.1-0.2-0.1-0.5-0.3-0.5c-0.4,0-1,0.2-1.3-0.1c0.1-0.2,0.3-0.2,0.5-0.3c0.6-0.1,1.1-0.5,1.7-0.8l0.8-0.1c0.8-1.4,2.5-1.3,4-1.3
			l1.4-0.4C22.8,32.8,22.9,33.4,23,33.8L23,33.8L23,33.8z"/>
		<path class="st2" d="M13.8,38.4c-0.3,0.2-0.6,0.1-0.9,0c-0.2-0.1-0.2-0.5-0.2-0.6C13.2,37.6,13.6,38.1,13.8,38.4L13.8,38.4
			L13.8,38.4z"/>
		<path class="st2" d="M26.7,43.1c0,0.1-0.2,0.1-0.2,0.1c-0.1,0-0.1-0.1-0.2-0.1C26.3,42.9,26.7,43,26.7,43.1L26.7,43.1L26.7,43.1z"
			/>
		<path class="st4" d="M23,19.1c0.1,0.2-0.1,0.4-0.3,0.4c-0.3,0-0.7,0-0.9-0.3c-0.3-0.2-0.1-0.5-0.1-0.8c0.1-0.1,0.3-0.1,0.5-0.1
			C22.5,18.6,22.7,18.8,23,19.1L23,19.1L23,19.1z"/>
		<path class="st4" d="M24.6,19.6c0,0.2-0.1,0.5-0.3,0.6c-0.1,0.1-0.3,0-0.3-0.1c-0.1-0.3,0.1-0.5,0.2-0.6
			C24.4,19.4,24.6,19.4,24.6,19.6L24.6,19.6L24.6,19.6z"/>
		<path class="st4" d="M22.8,21.7l0,0.5c-0.5,0.5-0.5,1.4-1.2,1.7c-0.2,0-0.4-0.1-0.4-0.3c0-0.3-0.1-0.7,0-1
			c0.3-0.2,0.4,0.5,0.7,0.2c0.1-0.5,0.5-0.8,0.7-1.2C22.6,21.5,22.7,21.6,22.8,21.7L22.8,21.7L22.8,21.7z"/>
		<polygon class="st4" points="0.7,12.7 44.8,12.7 44.8,15.7 0.7,15.7 0.7,12.7 		"/>
		<polygon class="st5" points="0.7,12.7 44.8,12.7 44.8,15.7 0.7,15.7 0.7,12.7 		"/>
		<polygon class="st2" points="33.5,13.2 38.5,13.2 38.5,15.2 33.5,15.2 33.5,13.2 		"/>
		<polygon class="st2" points="22.6,13.2 27.6,13.2 27.6,15.2 22.6,15.2 22.6,13.2 		"/>
		<polygon class="st2" points="11.6,13.2 16.6,13.2 16.6,15.2 11.6,15.2 11.6,13.2 		"/>
		<polygon class="st2" points="1.2,13.2 5.8,13.2 5.8,15.2 1.2,15.2 1.2,13.2 		"/>
		<path class="st4" d="M42.8,1.8c0.4,0.4,0.1,1.1,0.2,1.6c0.4,0.3,1.2,0,1.3,0.7c0.1,0.3-0.1,0.5-0.3,0.7c-0.3,0.3-0.7,0-1,0.3
			C43,6,43.1,7,43.1,8c0.3,0.2,0.6,0.2,0.9,0.3c0.1,0.2,0.3,0.4,0.3,0.6c0,0.2-0.2,0.4-0.4,0.5c-0.2,0.1-0.7,0-0.8,0.3
			c-0.1,0.5,0,1-0.1,1.5c-0.3,0.2-0.7,0.2-1.1,0.2l-3.5,0c-0.3,0.2-0.7,0.5-1.1,0.3c-0.7-0.5-1.8-0.3-2.6-0.4l-2.6,0
			c-0.5-0.4-0.1-1.1-0.3-1.6c-0.2-0.3-0.7-0.2-1-0.3c-0.3-0.1-0.3-0.4-0.3-0.7c0-0.3,0.3-0.4,0.6-0.5c0.2-0.1,0.6,0.1,0.7-0.2
			c0-0.9-0.1-1.8,0-2.7c-0.1-0.5-0.8-0.2-1.1-0.4c-0.3-0.2-0.3-0.5-0.2-0.8c0.2-0.5,0.8-0.4,1.3-0.5l0.1-0.1l0.1-1.6L32,1.7l4.1,0.1
			c0.5,0,0.9,0.2,1.3,0.4c0.9-0.7,2.2-0.3,3.2-0.5C41.3,1.8,42.1,1.7,42.8,1.8L42.8,1.8L42.8,1.8z"/>
		<path class="st6" d="M42.8,1.8c0.4,0.4,0.1,1.1,0.2,1.6c0.4,0.3,1.2,0,1.3,0.7c0.1,0.3-0.1,0.5-0.3,0.7c-0.3,0.3-0.7,0-1,0.3
			C43,6,43.1,7,43.1,8c0.3,0.2,0.6,0.2,0.9,0.3c0.1,0.2,0.3,0.4,0.3,0.6c0,0.2-0.2,0.4-0.4,0.5c-0.2,0.1-0.7,0-0.8,0.3
			c-0.1,0.5,0,1-0.1,1.5c-0.3,0.2-0.7,0.2-1.1,0.2l-3.5,0c-0.3,0.2-0.7,0.5-1.1,0.3c-0.7-0.5-1.8-0.3-2.6-0.4l-2.6,0
			c-0.5-0.4-0.1-1.1-0.3-1.6c-0.2-0.3-0.7-0.2-1-0.3c-0.3-0.1-0.3-0.4-0.3-0.7c0-0.3,0.3-0.4,0.6-0.5c0.2-0.1,0.6,0.1,0.7-0.2
			c0-0.9-0.1-1.8,0-2.7c-0.1-0.5-0.8-0.2-1.1-0.4c-0.3-0.2-0.3-0.5-0.2-0.8c0.2-0.5,0.8-0.4,1.3-0.5l0.1-0.1l0.1-1.6L32,1.7l4.1,0.1
			c0.5,0,0.9,0.2,1.3,0.4c0.9-0.7,2.2-0.3,3.2-0.5C41.3,1.8,42.1,1.7,42.8,1.8L42.8,1.8L42.8,1.8z"/>
		<path class="st4" d="M28.1,1.7c0.2,0,0.4,0.1,0.5,0.2c0.2,0.6,0,1,0.1,1.6c0.4,0.1,1,0,1.2,0.5C30,4.2,30,4.6,29.9,4.7
			c-0.3,0.4-1,0-1.2,0.5c-0.1,1.1-0.1,1.8,0,2.8c0.3,0.3,0.8,0.1,1.1,0.4c0.1,0.2,0.2,0.4,0.1,0.6c-0.2,0.4-0.7,0.4-1.2,0.5
			c-0.2,0.1,0,0.4-0.1,0.6c-0.1,0.4,0.2,0.9-0.2,1.1c-1.2,0.2-2.4-0.1-3.6,0l-1.2,0c-0.3,0.2-0.7,0.5-1.1,0.3l-0.7-0.3
			c-0.9,0-1.7,0-2.6,0c-0.6,0-1.4,0.2-1.8-0.3c0-0.5,0.1-1,0-1.4c-0.4-0.2-1.2,0.1-1.4-0.5c-0.1-0.2,0-0.4,0.1-0.6
			c0.3-0.5,1.1-0.1,1.4-0.4l0-1.3c0.1-0.6,0-1.1,0-1.7c-0.4-0.2-1.2,0.1-1.3-0.6C15.8,4,16,3.7,16.3,3.7c0.3-0.1,0.7,0.1,0.9-0.2
			l0.1-1.4c0.4-0.6,1.2-0.2,1.8-0.3l2.7,0C22.2,1.8,22.6,2.2,23,2C24.6,1.3,26.4,1.9,28.1,1.7L28.1,1.7L28.1,1.7z"/>
		<path class="st6" d="M28.1,1.7c0.2,0,0.4,0.1,0.5,0.2c0.2,0.6,0,1,0.1,1.6c0.4,0.1,1,0,1.2,0.5C30,4.2,30,4.6,29.9,4.7
			c-0.3,0.4-1,0-1.2,0.5c-0.1,1.1-0.1,1.8,0,2.8c0.3,0.3,0.8,0.1,1.1,0.4c0.1,0.2,0.2,0.4,0.1,0.6c-0.2,0.4-0.7,0.4-1.2,0.5
			c-0.2,0.1,0,0.4-0.1,0.6c-0.1,0.4,0.2,0.9-0.2,1.1c-1.2,0.2-2.4-0.1-3.6,0l-1.2,0c-0.3,0.2-0.7,0.5-1.1,0.3l-0.7-0.3
			c-0.9,0-1.7,0-2.6,0c-0.6,0-1.4,0.2-1.8-0.3c0-0.5,0.1-1,0-1.4c-0.4-0.2-1.2,0.1-1.4-0.5c-0.1-0.2,0-0.4,0.1-0.6
			c0.3-0.5,1.1-0.1,1.4-0.4l0-1.3c0.1-0.6,0-1.1,0-1.7c-0.4-0.2-1.2,0.1-1.3-0.6C15.8,4,16,3.7,16.3,3.7c0.3-0.1,0.7,0.1,0.9-0.2
			l0.1-1.4c0.4-0.6,1.2-0.2,1.8-0.3l2.7,0C22.2,1.8,22.6,2.2,23,2C24.6,1.3,26.4,1.9,28.1,1.7L28.1,1.7L28.1,1.7z"/>
		<path class="st4" d="M7.9,2c1.5-0.6,3.1-0.2,4.7-0.3c0.4,0.1,1-0.2,1.3,0.2c0,0.5,0,0.9,0,1.4c0.1,0.3,0.6,0.1,0.9,0.2
			C15,3.7,15.2,3.8,15.2,4c0.1,0.2,0,0.4-0.1,0.7C14.9,5,14.5,4.9,14.1,5L14,5.1C14,6,13.8,6.8,14,7.6c0,0.2-0.1,0.4,0.1,0.5
			c0.4,0,0.8,0,1.1,0.3c0.1,0.2,0.1,0.5,0.1,0.7c-0.2,0.9-1.6-0.1-1.4,0.9c0,0.4,0.1,0.9-0.1,1.3c-1.6,0-3.3-0.1-4.8,0
			c-0.3,0.2-0.6,0.4-1,0.4c-0.3-0.1-0.6-0.2-0.8-0.4c-1.5-0.1-2.9-0.1-4.3-0.1c-0.4-0.4-0.1-1-0.3-1.6C2.4,9.4,2,9.6,1.7,9.4
			C1.5,9.4,1.5,9.2,1.4,9c0-0.3,0-0.6,0.2-0.8c0.2-0.2,0.6-0.1,0.9-0.2l0.1-0.1C2.5,6.9,2.8,6,2.5,5c-0.1-0.2-0.4,0-0.6-0.2
			C1.7,4.7,1.4,4.6,1.3,4.3C1.3,4.1,1.2,3.8,1.4,3.6c0.3-0.4,0.9,0.1,1.2-0.3l0.1-1.4C3,1.5,3.6,1.7,4,1.7c0.7-0.1,1.6,0,2.4,0
			C6.9,1.7,7.4,1.8,7.9,2L7.9,2L7.9,2z"/>
		<path class="st6" d="M7.9,2c1.5-0.6,3.1-0.2,4.7-0.3c0.4,0.1,1-0.2,1.3,0.2c0,0.5,0,0.9,0,1.4c0.1,0.3,0.6,0.1,0.9,0.2
			C15,3.7,15.2,3.8,15.2,4c0.1,0.2,0,0.4-0.1,0.7C14.9,5,14.5,4.9,14.1,5L14,5.1C14,6,13.8,6.8,14,7.6c0,0.2-0.1,0.4,0.1,0.5
			c0.4,0,0.8,0,1.1,0.3c0.1,0.2,0.1,0.5,0.1,0.7c-0.2,0.9-1.6-0.1-1.4,0.9c0,0.4,0.1,0.9-0.1,1.3c-1.6,0-3.3-0.1-4.8,0
			c-0.3,0.2-0.6,0.4-1,0.4c-0.3-0.1-0.6-0.2-0.8-0.4c-1.5-0.1-2.9-0.1-4.3-0.1c-0.4-0.4-0.1-1-0.3-1.6C2.4,9.4,2,9.6,1.7,9.4
			C1.5,9.4,1.5,9.2,1.4,9c0-0.3,0-0.6,0.2-0.8c0.2-0.2,0.6-0.1,0.9-0.2l0.1-0.1C2.5,6.9,2.8,6,2.5,5c-0.1-0.2-0.4,0-0.6-0.2
			C1.7,4.7,1.4,4.6,1.3,4.3C1.3,4.1,1.2,3.8,1.4,3.6c0.3-0.4,0.9,0.1,1.2-0.3l0.1-1.4C3,1.5,3.6,1.7,4,1.7c0.7-0.1,1.6,0,2.4,0
			C6.9,1.7,7.4,1.8,7.9,2L7.9,2L7.9,2z"/>
		<path class="st2" d="M7.7,2.4l0.1,0.3c0.1,2,0.1,4,0.1,6.1L7.8,9.6c-0.5,0-1-0.2-1.6-0.2C5.7,9.3,5.1,9.5,4.5,9.3
			C4.2,8.6,4.5,7.9,4.4,7.2c0-1.5,0.1-3.3,0.1-4.9c0-0.1,0.1-0.2,0.2-0.2C5.7,2.1,6.9,1.9,7.7,2.4L7.7,2.4L7.7,2.4z"/>
		<path class="st2" d="M3.7,2.2c-0.3,0.2-0.6,0.6-0.5,1c0.1,2.5,0,4.8,0.1,7.1l0.2,0.2c1.2,0,2.5-0.1,3.6,0.1c0.1,0,0.1,0.1,0,0.2
			c-0.3,0.1-0.7,0.1-1,0.1l-3-0.1C2.9,10.6,3,10.2,3,10c0-0.3,0.1-0.7-0.2-0.8C2.4,9,1.9,9.2,1.7,8.8C1.9,8.2,2.8,8.7,3,8
			c0.1-1.1-0.1-2.2,0-3.3C2.9,4.2,2.2,4.4,1.8,4.3C1.7,4.2,1.6,4.1,1.7,4C2,3.7,2.8,4.1,3,3.6c0.1-0.5,0-0.9,0.1-1.4
			C3.3,2,3.5,2,3.7,2.1V2.2L3.7,2.2L3.7,2.2z"/>
		<path class="st2" d="M12.2,2.2c0,2.4,0,4.7,0,7.1c-1.2,0.1-2.5-0.1-3.7,0.2c-0.3-0.2-0.1-0.6-0.1-1c-0.1-0.8,0-1.6,0-2.5
			c0-1.2-0.1-2.5,0-3.6c0.2-0.4,0.6-0.5,1-0.5l2.8,0L12.2,2.2L12.2,2.2L12.2,2.2z"/>
		<path class="st2" d="M13.5,2.2c0.1,0.5-0.1,1.1,0.2,1.6C14,4,14.5,3.9,14.8,4c0.1,0.1,0.1,0.3,0,0.4c-0.3,0.3-1-0.1-1.2,0.4
			c0,1.2-0.1,2.3,0,3.5l0.2,0.1c0.4,0.1,0.9-0.1,1.1,0.2c0,0.2,0,0.4-0.2,0.4c-0.4,0.1-1-0.1-1.2,0.3c-0.1,0.5,0.1,1-0.1,1.4
			l-0.2,0.1l-4.2-0.1c-0.1-0.1,0-0.1,0-0.2l0.4-0.2l3.4,0c0.4-0.1,0.4-0.5,0.4-0.8c0-1.7,0-3.1,0-4.8c0-0.8,0.1-1.6-0.1-2.4
			c0-0.2-0.3-0.3-0.3-0.5C13.1,2,13.4,2,13.5,2.2L13.5,2.2L13.5,2.2z"/>
		<path class="st2" d="M32.8,2.2c-0.1,0.2-0.4,0.4-0.4,0.7c0,2.5,0,5.1,0.1,7.7l0.2,0.1c1.3,0,2.7-0.3,3.9,0.3c0.1,0,0,0,0,0.1
			c-1.4,0-2.9,0.1-4.3,0l-0.1-0.1c-0.1-0.5,0.1-1-0.2-1.5c-0.3-0.3-1.3,0.1-1-0.6c0.4-0.3,0.9,0.1,1.1-0.4c0-1.3,0.1-2.4,0-3.5
			c-0.3-0.4-0.8-0.1-1.1-0.2c-0.1-0.1-0.2-0.3-0.1-0.4c0.4-0.3,1.5,0.1,1.3-0.8c0.1-0.4-0.2-1.1,0.4-1.2C32.6,2.1,32.7,2.1,32.8,2.2
			L32.8,2.2L32.8,2.2z"/>
		<path class="st2" d="M42.5,2.2c0.1,0.6-0.1,1.1,0.2,1.6c0.4,0.1,0.9-0.1,1.1,0.2c0,0.7-1,0.1-1.2,0.7c0.1,1.1-0.1,2.1,0,3.3
			c-0.1,0.1-0.2,0.2-0.1,0.3c0.3,0.3,0.7-0.2,1.1,0.1c0.2,0.1,0.1,0.2,0.1,0.4c-0.3,0.4-0.9-0.1-1.1,0.4l-0.1,1.5L42.4,11l-4,0
			c-0.1-0.1,0-0.1,0-0.1l0.5-0.2h3c0.2,0,0.4-0.1,0.4-0.4c0-2.4-0.1-4.8-0.1-7.4l-0.4-0.7C42,2,42.5,2,42.5,2.2L42.5,2.2L42.5,2.2z"
			/>
		<path class="st2" d="M33.2,3.2c0,2.1,0,4.3,0,6.4C33.2,9.8,33,9.9,32.9,10l-0.1-0.1c0-0.7,0-1.5,0-2.1V7.3c0-1.4,0-3,0-4.4
			c0.1-0.1,0.2-0.4,0.4-0.4C33.2,2.7,33.2,2.9,33.2,3.2L33.2,3.2L33.2,3.2z"/>
		<path class="st2" d="M42,2.8c-0.1,1.7,0,3.3,0,4.8c0,0.7,0,1.4,0,2.1c0,0.1,0,0.1-0.1,0.1c-0.5-0.2-0.3-0.8-0.4-1.2
			c0-0.6-0.1-1.3,0.1-2l-0.1-0.2l0-3.9C41.6,2.3,41.9,2.7,42,2.8L42,2.8L42,2.8z"/>
		<path class="st2" d="M4,2.5c0.1,2.4,0,4.8,0,7.1c0,0.1-0.1,0.3-0.3,0.3C3.6,9.1,3.6,8.3,3.7,7.6c-0.1-1.5,0-3.2,0-4.8
			C3.7,2.7,3.9,2.5,4,2.5L4,2.5L4,2.5z"/>
		<path class="st2" d="M12.9,2.8c0,2.4,0,4.8-0.1,7c-0.1,0.1-0.2,0-0.3-0.1c-0.2-0.4,0-0.8,0-1.2c-0.1-1.9,0-3.9,0-5.9
			C12.7,2.5,12.9,2.6,12.9,2.8L12.9,2.8L12.9,2.8z"/>
		<path class="st2" d="M37.6,5.8C37.5,6,37.3,6,37.1,5.9L37,5.8c0.1-0.3,0-0.7,0.3-1C37.5,5.1,37.5,5.5,37.6,5.8L37.6,5.8L37.6,5.8z
			"/>
		<path class="st2" d="M12.6,10.1c-0.1,0.2-0.4,0.1-0.5,0.2h-1c-0.8,0-1.6-0.1-2.2,0.1c-0.1,0-0.2-0.1-0.2-0.3
			c0.1-0.3,0.4-0.2,0.7-0.3c0.9,0,2,0,2.9,0C12.4,9.8,12.5,9.9,12.6,10.1L12.6,10.1L12.6,10.1z"/>
		<path class="st2" d="M7.6,10c0,0.1-0.1,0.3-0.3,0.4c-1-0.3-2-0.1-3-0.2l0,0c0.1-0.2,0.2-0.3,0.4-0.3C5.7,9.7,6.7,9.7,7.6,10
			L7.6,10L7.6,10z"/>
		<path class="st2" d="M37,10c0.1,0.1,0.1,0.2,0,0.2c-0.4,0.4-0.8-0.1-1.3,0c-0.8-0.1-1.6,0-2.4-0.1c0.2-0.7,1.1-0.3,1.6-0.4
			C35.6,9.9,36.4,9.7,37,10L37,10L37,10z"/>
		<path class="st2" d="M41.3,9.9c0.1,0.1,0.3,0.2,0.3,0.4c-1.2,0.2-2.4-0.1-3.6,0.2c-0.2,0-0.2-0.2-0.2-0.4c0.2-0.3,0.6-0.2,1-0.3
			L41.3,9.9L41.3,9.9L41.3,9.9z"/>
		<path class="st2" d="M8.6,10.5c0.1,0.2,0,0.5-0.2,0.7c-0.1,0.1-0.4,0.2-0.5,0.1c-0.2,0-0.2-0.2-0.2-0.4c-0.1-0.3,0.3-0.4,0.4-0.7
			C8.3,10.2,8.5,10.4,8.6,10.5L8.6,10.5L8.6,10.5z"/>
		<path class="st2" d="M37.8,10.7c0,0.3,0,0.7-0.3,0.7c-0.2,0-0.4-0.1-0.5-0.3c-0.1-0.3,0.1-0.6,0.3-0.7
			C37.6,10.3,37.7,10.6,37.8,10.7L37.8,10.7L37.8,10.7z"/>
		<path class="st2" d="M26.9,2.3c0,2.3,0,4.7,0,7.1l-0.1,0.1c-1.3,0.1-2.5-0.2-3.7,0.2c-0.2-0.1,0-0.5-0.1-0.7c0-2,0-4.1,0-6.2
			c0-0.2,0.1-0.4,0.3-0.4c0.3-0.2,0.8-0.1,1.2-0.2l2.4,0.1L26.9,2.3L26.9,2.3L26.9,2.3z"/>
		<path class="st2" d="M28.3,2.2c0,0.5,0,1,0.1,1.6c0.4,0.3,1.4-0.1,1.2,0.7c-0.3,0.2-0.8,0.1-1.1,0.1l-0.1,0.1
			c-0.2,1.2,0.1,2.4,0,3.5c0,0.1,0.1,0.3,0.3,0.4c0.3,0,0.8-0.2,1,0.2c-0.1,0.7-1,0.1-1.2,0.6c-0.1,0.5,0.1,1-0.1,1.5L28.1,11
			c-1.5,0-3,0-4.5-0.1c-0.1,0,0-0.1,0-0.1l0.3-0.1c1.2-0.1,2.5,0,3.8-0.1c0.2,0,0.3-0.2,0.3-0.4c0-2.3,0-4.6,0-7.2
			c-0.1-0.4-0.4-0.6-0.5-0.9C27.8,2.1,28.2,2,28.3,2.2L28.3,2.2L28.3,2.2z"/>
		<path class="st2" d="M18.4,2.1c-0.1,0.3-0.3,0.4-0.4,0.6c-0.2,0.5,0,1-0.1,1.5c0,2.1,0,4,0,6c0,0.2,0.1,0.3,0.3,0.4l3.2,0.1
			c0.2,0,0.4,0.1,0.5,0.2c-0.1,0.2-0.3,0.1-0.4,0.1c-1.2,0-2.5,0.1-3.6-0.1l-0.1-0.1c0-0.5,0-1.1-0.2-1.6c-0.4-0.1-0.8,0-1.2-0.1
			c-0.2-0.1-0.1-0.3,0-0.4c0.4-0.2,1.1,0.1,1.3-0.4c0-1.2,0.1-2.3,0-3.5c-0.3-0.5-1,0-1.3-0.5c0.1-0.7,1.1-0.1,1.3-0.7l0.1-1.4
			C17.9,2,18.2,2.1,18.4,2.1L18.4,2.1L18.4,2.1z"/>
		<path class="st2" d="M18.8,2.5c0.1,2.1-0.1,3.9,0,6C18.6,9,19,9.7,18.3,9.8c-0.1-2.1,0-4.3-0.1-6.5c-0.1-0.4,0.2-0.7,0.4-0.9
			L18.8,2.5L18.8,2.5L18.8,2.5z"/>
		<path class="st2" d="M27.7,2.9c0,2.3,0.1,4.7-0.1,6.9c-0.1,0-0.3-0.1-0.3-0.2c0-0.9-0.1-1.9-0.1-2.8c0.1-1.3-0.1-2.8,0.1-4.1
			C27.5,2.5,27.7,2.7,27.7,2.9L27.7,2.9L27.7,2.9z"/>
		<path class="st2" d="M22.2,10c0.1,0,0.3,0.1,0.2,0.3l-0.2,0.2c-1-0.4-2.4-0.1-3.5-0.3c0.1-0.1,0.2-0.3,0.3-0.4
			C20.1,9.8,21.2,9.7,22.2,10L22.2,10L22.2,10z"/>
		<path class="st2" d="M27,9.8c0.2,0.1,0.3,0.2,0.3,0.4l-0.2,0.1c-1.3,0-2.5-0.2-3.7,0.1c-0.2,0-0.4,0-0.4-0.2
			c0.1-0.3,0.5-0.4,0.8-0.4C24.9,9.7,25.9,9.8,27,9.8L27,9.8L27,9.8z"/>
		<path class="st2" d="M23.1,10.8c0,0.2,0,0.5-0.3,0.5c-0.2,0-0.5,0-0.5-0.3c0.1-0.2,0.2-0.4,0.4-0.5C22.9,10.5,23.1,10.7,23.1,10.8
			L23.1,10.8L23.1,10.8z"/>
		<path class="st2" d="M22.5,7c0.1-1.2,0-2.5,0.1-3.7c0-0.4,0-0.8-0.2-1c-0.9-0.4-2-0.2-3-0.2c-0.1,0-0.2,0-0.2,0.1
			c0,2.4,0,4.6,0,6.9l0.1,0.3c0.7,0.1,1.4,0.1,2.2,0.1c0.4,0.1,0.8,0.2,1.1,0.2c0-0.8,0.1-1.4,0-2.2L22.5,7L22.5,7z"/>
		<path class="st4" d="M22.2,6.9c-0.4-0.3-0.4-0.7-0.7-1.1c0.1-0.2,0.3-0.2,0.5-0.4c0.2-0.2,0.5-0.6,0.4-0.9c0-0.3-0.2-0.6-0.5-0.7
			c-0.6-0.2-1.4-0.1-2.1-0.1c-0.1,0.1-0.1,0.2-0.1,0.3C20,4.1,20,4.2,20.1,4.5c0,0.8,0,1.6-0.1,2.4l-0.3,0.4
			c0.3,0.3,0.8,0.1,1.3,0.2C21,7.2,20.7,7,20.6,6.8c0.1-0.2,0-0.6,0.2-0.8c0.4,0.4,0.6,1,1.1,1.4l0.7,0l0-0.4
			C22.5,7.1,22.3,7,22.2,6.9L22.2,6.9z M21.3,5.5c-0.2,0-0.5,0.1-0.6-0.1c0-0.4-0.1-0.9,0-1.3C21,3.9,21.4,4,21.6,4.2
			c0.1,0.2,0.1,0.5,0.1,0.7C21.6,5.2,21.5,5.4,21.3,5.5L21.3,5.5z"/>
		<path class="st2" d="M41.2,2.9c0-0.3,0-0.6-0.1-0.8l-1.1,0c-0.8,0.1-1.6-0.1-2.3,0.3c-0.3,0.4-0.1,0.8-0.2,1.2
			c0.1,0.3,0.1,0.5,0.2,0.8l-0.1,0.3l-0.5-0.1L37,4.3c0.1-0.2,0.1-0.4,0.1-0.6c0-0.5,0.2-1.3-0.5-1.5c-1-0.1-1.9-0.1-2.9-0.1
			c-0.1,0-0.2,0-0.2,0.1c0,2.3,0,4.3,0,6.5c0,0.3-0.1,0.6,0.2,0.7c0.9-0.1,1.6,0,2.5,0c0.3,0,0.5,0.3,0.9,0.2c0.1-0.9,0.1-2,0.1-3
			c0-0.1,0-0.3-0.1-0.3l0-0.2l0.5,0.1l0.1,0.2c0,0,0,0-0.1,0.1l-0.1,3.1c0,0.1,0,0.3,0.2,0.3c0.9-0.5,2.1-0.2,3.1-0.3l0.2-0.1
			c0.1-0.5,0.1-2.3,0.1-2.3C41.2,5.7,41.2,4.4,41.2,2.9L41.2,2.9z"/>
		<path class="st4" d="M37.7,6.3c0.1,0.2,0.2,0.4,0.2,0.6l-0.2,0.3l0.1,0.1c0.4,0,0.8,0.1,1.2-0.1c-0.1-0.2-0.3-0.2-0.4-0.4
			c-0.4-1.1-0.7-2.3-1-3.4l-0.4,0.2c-0.2,1-0.6,1.9-0.9,3c-0.1,0.2-0.3,0.2-0.4,0.4c-0.2,0.1-0.3-0.2-0.4-0.3c0-0.9,0.1-1.6,0-2.6
			c0-0.1,0.1-0.3,0.3-0.2c0.2,0.1,0.2,0.4,0.3,0.6c0.1,0.1,0.2,0.1,0.2-0.1l0.1-0.9c-0.1-0.3-0.4,0-0.6,0c-0.4,0-1.1,0.1-1.5-0.2
			c-0.4,0.1-0.3,0.6-0.3,1c0,0.1,0,0.1,0,0.1c0.3-0.2,0.4-0.7,0.9-0.5l0,0.9l-0.1,1.9c-0.1,0.2-0.4,0.2-0.4,0.4
			c0.5,0.1,1.1,0,1.6,0.1c0.3,0,0.6,0.1,0.9,0c0.1-0.1,0-0.2,0-0.2c-0.2-0.1-0.4-0.2-0.3-0.5c0.1-0.1,0.1-0.4,0.4-0.4
			c0.1,0,0.1,0,0.1,0.1l0.4,0.1v0C37.6,6.3,37.6,6.3,37.7,6.3L37.7,6.3z M37.1,5.9L37,5.8c0.1-0.3,0-0.7,0.3-1
			c0.3,0.2,0.2,0.6,0.4,0.9C37.5,6,37.3,6,37.1,5.9L37.1,5.9z"/>
		<path class="st4" d="M40.5,3.9c0,0.2,0.2,0.6,0,0.8c-0.2-0.2-0.2-0.4-0.6-0.5c-0.2,0-0.4,0-0.4,0.2C39.4,5.1,40,5,40.4,5.5
			c0.3,0.3,0.5,0.9,0.3,1.3c-0.1,0.3-0.3,0.5-0.6,0.5c-0.3,0.1-0.5-0.2-0.8,0c-0.1,0-0.2,0.1-0.2,0l0-1.2C39.1,6,39.2,6,39.3,6
			c0.2,0.4,0.1,0.9,0.6,0.9c0.2,0,0.3,0,0.4-0.3c0.1-1.1-1.3-0.8-1.3-1.9C39,4.4,39,4.2,39.1,4c0.2-0.4,0.8-0.2,1.2-0.4
			C40.4,3.6,40.4,3.8,40.5,3.9L40.5,3.9L40.5,3.9z"/>
		<path class="st4" d="M25.5,3.8c-0.3,0.1-0.6,0.4-0.5,0.8c-0.1,0.7-0.1,1.5,0,2.2l0.5,0.4l0,0.1c-0.5,0-1,0.1-1.5,0
			c-0.2-0.2,0.3-0.4,0.4-0.5c0.1-0.8,0.2-1.7,0.1-2.6c-0.1-0.3-0.5-0.1-0.4-0.4C24.3,3.7,24.9,3.7,25.5,3.8L25.5,3.8L25.5,3.8
			L25.5,3.8z"/>
		<path class="st4" d="M10.9,4.4C10.6,4.7,10.6,4,10.3,4c-0.2,0-0.4-0.1-0.6,0.1c-0.1,0.4-0.1,0.7,0,1.1c0.1,0.1,0.4,0.1,0.5,0.1
			c0.2-0.1,0.3-0.4,0.5-0.4c0.2,0.1-0.1,0.4,0,0.5c-0.1,0.2,0.1,0.5-0.1,0.6c-0.2-0.1-0.3-0.4-0.5-0.4l-0.4,0c-0.1,0.5-0.1,1,0,1.5
			c0.2,0.2,0.5,0,0.8,0c0.4-0.1,0.3-0.6,0.6-0.6c0.1,0.2,0.1,0.5,0.1,0.8L11,7.4l-2.1,0c-0.1,0-0.3,0-0.2-0.2C9.4,6.8,9,6,9.1,5.4
			C9,4.9,9.3,4.2,8.7,3.9c0-0.2,0.2-0.1,0.2-0.2c0.5,0,1.3,0.2,1.7-0.2C10.9,3.6,10.9,4,10.9,4.4L10.9,4.4L10.9,4.4z"/>
		<path class="st4" d="M7.7,3.9c-0.6,0.5-0.6,1.3-0.9,2c-0.2,0.4-0.1,1-0.5,1.3C6.1,7.2,6,7.1,6,7C5.8,6,5.5,5.1,5.2,4.2
			c0-0.3-0.7-0.3-0.3-0.5c0.4-0.1,0.8,0.1,1.2,0C6.2,4,5.7,4.2,5.9,4.5c0.3,0.4,0.2,1,0.5,1.4l0.1-0.2c0-0.7,0.8-1.3,0.2-1.9
			c0.1-0.3,0.6-0.1,0.9-0.2C7.6,3.7,7.8,3.7,7.7,3.9L7.7,3.9L7.7,3.9z"/>
	</g>
	<g>
		<path class="st1" d="M238.5,13.5h4.1c2.2,0,3.8,0.7,3.8,2.7c0,1.5-0.8,2.3-1.9,2.5v0c1.3,0.2,2.2,1,2.2,2.6c0,2-1.6,3-3.8,3h-4.3
			V13.5z M242.4,18.1c1.4,0,2.2-0.4,2.2-1.5c0-1-0.7-1.4-2.2-1.4h-2.1v2.9H242.4z M242.7,22.8c1.5,0,2.2-0.5,2.2-1.6
			c0-1.2-0.9-1.6-2.4-1.6h-2.2v3.2H242.7z"/>
		<path class="st1" d="M249.1,13.5h1.8v9.1h5v1.7h-6.8V13.5z"/>
		<path class="st1" d="M260.9,13.5h1.8l3.8,10.8h-1.9l-0.9-2.6h-4.1l-0.9,2.6h-1.7L260.9,13.5z M263.2,20.2l-1.5-4.4h0l-1.5,4.4
			H263.2z"/>
		<path class="st1" d="M266.7,13.5h1.9l2.8,8.4h0l2.8-8.4h1.7l-3.7,10.8h-1.7L266.7,13.5z"/>
		<path class="st1" d="M280,13.5h1.8l3.8,10.8h-1.9l-0.9-2.6h-4.1l-0.9,2.6h-1.7L280,13.5z M282.3,20.2l-1.5-4.4h0l-1.5,4.4H282.3z"
			/>
		<path class="st1" d="M288.7,15.2h-3.3v-1.7h8.5v1.7h-3.3v9.1h-1.8V15.2z"/>
		<path class="st1" d="M295.9,13.5h1.9l5.1,7.7h0v-7.7h1.7v10.8h-1.7l-5.3-7.9h0v7.9h-1.7V13.5z"/>
		<path class="st1" d="M307.5,13.5h1.8v10.8h-1.8V13.5z"/>
		<path class="st1" d="M312.2,13.5h1.8v5l4.2-5h2.2l-3.7,4.2l4.1,6.6h-2.1l-3.2-5.2l-1.5,1.7v3.5h-1.8V13.5z"/>
		<path class="st1" d="M326.8,13.5h1.8v10.8h-1.8V13.5z"/>
		<path class="st1" d="M331.6,13.5h1.9l5.1,7.7h0v-7.7h1.7v10.8h-1.7l-5.3-7.9h0v7.9h-1.7V13.5z"/>
		<path class="st1" d="M342.5,21.8l1.4-0.8c0.6,1.3,1.6,1.9,3,1.9c1.3,0,2.2-0.4,2.2-1.4c0-0.9-0.7-1.4-2.5-1.9
			c-2.1-0.6-3.8-1.2-3.8-3.2c0-1.8,1.5-3,3.7-3c2.1,0,3.4,1.1,4,2.3l-1.3,0.9c-0.6-1.1-1.6-1.6-2.7-1.6c-1.2,0-1.9,0.4-1.9,1.2
			c0,1,0.8,1.3,2.5,1.9c2,0.6,3.7,1.3,3.7,3.3c0,1.8-1.5,3.2-4.1,3.2C344.7,24.5,343.2,23.4,342.5,21.8z"/>
		<path class="st1" d="M355.2,15.2h-3.3v-1.7h8.5v1.7h-3.3v9.1h-1.8V15.2z"/>
		<path class="st1" d="M362.5,13.5h1.8v10.8h-1.8V13.5z"/>
		<path class="st1" d="M369.7,15.2h-3.3v-1.7h8.5v1.7h-3.3v9.1h-1.8V15.2z"/>
		<path class="st1" d="M376.7,20.4v-6.9h1.8v6.7c0,1.6,0.7,2.6,2.4,2.6c1.6,0,2.4-0.9,2.4-2.6v-6.7h1.8v6.8c0,2.5-1.4,4.1-4.2,4.1
			C377.9,24.5,376.7,22.9,376.7,20.4z"/>
		<path class="st1" d="M390.3,15.2h-3.3v-1.7h8.5v1.7h-3.3v9.1h-1.8V15.2z"/>
		<path class="st1" d="M397.4,13.5h7v1.7h-5.1v2.7h3.8v1.6h-3.8v3.1h5.4v1.7h-7.3V13.5z"/>
		<path d="M238.5,28.8h1.8l4.9,7.4h0v-7.4h1.6v10.4h-1.6l-5.1-7.6h0v7.6h-1.6V28.8z"/>
		<path d="M249.3,28.8h6.7v1.6h-5V33h3.6v1.6h-3.6v3h5.2v1.6h-7V28.8z"/>
		<path d="M257.9,35.4v-6.6h1.8v6.4c0,1.6,0.7,2.5,2.3,2.5c1.6,0,2.3-0.9,2.3-2.5v-6.5h1.7v6.6c0,2.4-1.3,4-4,4
			C259.1,39.3,257.9,37.7,257.9,35.4z"/>
		<path d="M268.3,28.8h3.7c2.5,0,3.9,1,3.9,3.1c0,1.7-0.9,2.6-2.3,2.9l2.4,4.3h-1.9l-2.3-4.1H270v4.1h-1.7V28.8z M272,33.5
			c1.5,0,2.2-0.4,2.2-1.6c0-1.2-0.8-1.6-2.3-1.6H270v3.2H272z"/>
		<path d="M277.5,34c0-3.5,2.1-5.4,4.7-5.4c2.6,0,4.7,1.9,4.7,5.4c0,3.5-2,5.4-4.7,5.4C279.6,39.4,277.5,37.5,277.5,34z M285.1,34
			c0-2.4-1.2-3.8-2.9-3.8c-1.8,0-2.9,1.3-2.9,3.8c0,2.4,1.2,3.8,2.9,3.8C284,37.8,285.1,36.4,285.1,34z"/>
		<path d="M288.9,28.8h3.9c2.1,0,3.6,0.7,3.6,2.6c0,1.4-0.8,2.2-1.8,2.4v0c1.3,0.2,2.1,1,2.1,2.5c0,1.9-1.6,2.8-3.7,2.8h-4.2V28.8z
			 M292.7,33.1c1.4,0,2.1-0.4,2.1-1.4c0-1-0.6-1.4-2.1-1.4h-2.1v2.8H292.7z M292.9,37.7c1.5,0,2.1-0.5,2.1-1.5
			c0-1.1-0.8-1.5-2.3-1.5h-2.1v3H292.9z"/>
		<path d="M299,28.8h1.8v10.4H299V28.8z"/>
		<path d="M302.9,34c0-3.5,2.1-5.4,4.7-5.4c2.6,0,4.7,1.9,4.7,5.4c0,3.5-2,5.4-4.7,5.4C304.9,39.4,302.9,37.5,302.9,34z M310.5,34
			c0-2.4-1.2-3.8-2.9-3.8c-1.8,0-2.9,1.3-2.9,3.8c0,2.4,1.2,3.8,2.9,3.8C309.3,37.8,310.5,36.4,310.5,34z"/>
		<path d="M314.3,28.8h1.8v8.8h4.8v1.6h-6.5V28.8z"/>
		<path d="M321.6,34c0-3.5,2.1-5.4,4.7-5.4c2.6,0,4.7,1.9,4.7,5.4c0,3.5-2,5.4-4.7,5.4C323.7,39.4,321.6,37.5,321.6,34z M329.2,34
			c0-2.4-1.2-3.8-2.9-3.8c-1.8,0-2.9,1.3-2.9,3.8c0,2.4,1.2,3.8,2.9,3.8C328,37.8,329.2,36.4,329.2,34z"/>
		<path d="M332.5,33.9c0-3.3,1.8-5.3,4.6-5.3c2,0,3.4,0.9,4,3.3l-1.6,0.4c-0.5-1.6-1.2-2.1-2.4-2.1s-2.8,0.8-2.8,3.7
			c0,2.9,1.4,3.9,2.9,3.9c1.4,0,2.3-0.8,2.4-2.3h-2.1V34h3.8v5.1h-1.4v-1.5h0c-0.3,0.7-1.2,1.7-2.8,1.7
			C333.9,39.4,332.5,37.1,332.5,33.9z"/>
		<path d="M345.6,34.7l-3.5-5.9h1.9l2.6,4.4l2.6-4.4h1.8l-3.6,5.9v4.5h-1.8V34.7z"/>
	</g>
</g>
</svg>
